<?xml version="1.0" standalone="no"?><!DOCTYPE svg PUBLIC "-//W3C//DTD SVG 1.1//EN" "http://www.w3.org/Graphics/SVG/1.1/DTD/svg11.dtd"><svg xmlns="http://www.w3.org/2000/svg" version="1.1" width="71px" height="25.5px" viewBox="0 -1 71 25.5" style="top:-1px"><desc>Clear Clinics</desc><defs/><g id="Polygon123832"><path d="m6.6 5.8c0-.3-.1-.5-.2-.7c-.1-.2-.2-.4-.4-.5c-.1-.2-.3-.3-.6-.4c-.2-.1-.4-.1-.7-.1c-.4 0-.7.1-1 .2c-.3.1-.5.3-.8.6c-.2.2-.3.5-.4.9c-.2.4-.2.8-.2 1.3c0 .5 0 .9.2 1.3c.1.4.2.7.4.9c.2.3.5.5.8.6c.3.2.6.2 1 .2c.3 0 .5 0 .7-.1c.3-.1.5-.2.6-.3c.2-.2.3-.4.4-.6c.1-.2.2-.5.2-.8h1.7c-.1.6-.2 1-.4 1.4c-.2.4-.4.7-.8 1c-.3.3-.6.5-1.1.6c-.4.2-.8.3-1.3.3c-.6 0-1.2-.1-1.7-.4c-.5-.2-.9-.5-1.3-.8c-.3-.4-.6-.9-.8-1.5C.7 8.4.7 7.8.7 7.1c0-.7 0-1.3.2-1.8c.2-.6.5-1 .9-1.4c.3-.4.7-.7 1.2-.9c.5-.2 1.1-.3 1.7-.3c.5 0 .9 0 1.3.2c.4.1.8.3 1.1.6c.3.3.6.6.8 1c.2.4.3.8.4 1.3H6.6zm4.7 5.6H9.8V3h1.5v8.4zm4.2.2c-.4 0-.8-.1-1.2-.3c-.4-.1-.7-.3-1-.6c-.3-.3-.5-.6-.6-1c-.2-.4-.2-.9-.2-1.4c0-.5 0-1 .2-1.4c.1-.4.3-.7.6-1c.2-.3.6-.5.9-.6c.4-.2.8-.3 1.2-.3c.5 0 .9.1 1.2.3c.4.1.7.3 1 .6c.2.3.4.6.6 1c.1.4.2.9.2 1.4c-.03 0 0 .5 0 .5h-4.3c0 .2.1.5.2.6c.1.2.2.4.3.5c.1.1.3.2.4.3c.2 0 .3.1.5.1c.2 0 .3-.1.4-.1c.2-.1.3-.1.4-.2l.3-.3c0-.2.1-.3.1-.5h1.6c0 .4-.2.7-.3 1c-.2.3-.4.6-.6.8c-.3.1-.6.3-.9.4c-.3.1-.6.2-1 .2zm1.2-4.1c-.1-.4-.2-.7-.5-.9c-.2-.2-.5-.2-.8-.2c-.3 0-.6 0-.8.2c-.2.2-.4.5-.5.9h2.6zm6.7 1.1s-.43.05-.4 0c-1.3 0-2 .4-2 1c0 .2.1.4.3.5c.1.1.4.2.7.2c.1 0 .2-.1.4-.1c.1 0 .3-.1.4-.1c.1-.1.2-.1.3-.2l.3-.3c.02-.01 0-1 0-1zm0 2.5c-.5.3-1.1.5-1.7.5c-.4 0-.6-.1-.9-.2c-.3-.1-.5-.2-.7-.4c-.2-.1-.4-.3-.5-.6c-.1-.2-.2-.5-.2-.7c0-1.6 1.3-2.3 3.8-2.3h.2v-.5c0-.1-.1-.2-.2-.3c-.1-.1-.2-.1-.3-.2h-.6c-.7 0-1.1.3-1.2.9h-1.5c.1-1.5 1-2.3 2.8-2.3c.4 0 .7.1 1 .2c.4 0 .6.2.9.3c.2.2.3.5.5.8c.1.3.1.7.1 1.2c.05-.03 0 3.9 0 3.9h-1.5s.02-.3 0-.3zm6.8-4.4c-.2 0-.3-.1-.5-.1c-.1 0-.3-.1-.4-.1c-.2 0-.4.1-.5.2c-.2.1-.4.3-.6.5c.03 0 0 4.2 0 4.2h-1.5V5.2h1.5s.03.35 0 .4c.4-.4.8-.6 1.3-.6c0 0 .1.1.3.1h.4v1.6zm9.9-.9c0-.3-.1-.5-.2-.7c-.1-.2-.2-.4-.4-.5c-.1-.2-.3-.3-.6-.4c-.2-.1-.4-.1-.7-.1c-.4 0-.7.1-1 .2c-.3.1-.6.3-.8.6c-.2.2-.3.5-.4.9c-.2.4-.2.8-.2 1.3c0 .5 0 .9.2 1.3c.1.4.2.7.4.9c.2.3.5.5.8.6c.3.2.6.2 1 .2c.2 0 .5 0 .7-.1c.3-.1.5-.2.6-.3c.2-.2.3-.4.4-.6c.1-.2.2-.5.2-.8h1.7c-.1.6-.2 1-.4 1.4c-.2.4-.4.7-.8 1c-.3.3-.6.5-1.1.6c-.4.2-.8.3-1.3.3c-.6 0-1.2-.1-1.7-.4c-.5-.2-.9-.5-1.3-.8c-.3-.4-.6-.9-.8-1.5c-.2-.5-.3-1.1-.3-1.8c0-.7.1-1.3.3-1.8c.2-.6.5-1 .8-1.4c.4-.4.8-.7 1.3-.9c.5-.2 1.1-.3 1.7-.3c.5 0 .9 0 1.3.2c.4.1.8.3 1.1.6c.3.3.6.6.8 1c.2.4.3.8.4 1.3h-1.7zm4.7 5.6h-1.5V3h1.5v8.4zm3 0h-1.6V5.2h1.6v6.2zm0-6.8h-1.6V3h1.6v1.6zm3.1 1c.4-.4.9-.6 1.4-.6c1.5 0 2.2.8 2.2 2.4c.02.02 0 4 0 4H53s-.03-3.93 0-3.9c0-.4-.1-.7-.2-.9c-.1-.1-.4-.2-.6-.2c-.5 0-.9.2-1.3.8c-.04-.05 0 4.2 0 4.2h-1.6V5.2h1.6s-.04.36 0 .4zm6.8 5.8h-1.5V5.2h1.5v6.2zm0-6.8h-1.5V3h1.5v1.6zm4.1 7c-.4 0-.8-.1-1.2-.3c-.3-.1-.6-.3-.9-.6c-.2-.3-.4-.6-.6-1c-.1-.4-.2-.9-.2-1.4c0-.5.1-1 .2-1.4c.1-.4.3-.7.6-1c.3-.3.6-.5.9-.6c.4-.2.8-.3 1.2-.3c.4 0 .7.1 1 .2c.3.1.6.3.8.5c.2.2.4.4.6.7c.1.3.2.6.3 1h-1.6c-.1-.2-.1-.3-.1-.4c-.1-.2-.2-.3-.3-.4c0-.1-.1-.1-.3-.2h-.4c-.2 0-.3 0-.5.1c-.2.1-.3.2-.4.3c-.2.2-.3.4-.3.7c-.1.2-.1.5-.1.8c0 .3 0 .6.1.9c0 .2.1.4.3.6c.1.1.2.3.4.3c.2.1.3.2.5.2c.2 0 .3-.1.4-.1c.1-.1.2-.1.3-.2l.3-.3c0-.2 0-.3.1-.5h1.6c-.1.4-.2.7-.3 1c-.2.3-.4.6-.6.8c-.2.2-.5.3-.8.4c-.3.1-.6.2-1 .2zm6 0c-1.7 0-2.6-.8-2.7-2.4h1.6c0 .7.4 1.1 1.1 1.1c.4 0 .6-.1.8-.2c.2-.2.3-.3.3-.5c0-.1-.1-.2-.1-.2c0-.1-.1-.1-.2-.2c-.1 0-.3-.1-.5-.1c-.1-.1-.4-.2-.7-.2c-.4-.1-.7-.2-1-.3c-.2-.1-.5-.2-.6-.4c-.2-.1-.3-.3-.4-.5c-.1-.2-.1-.4-.1-.7c0-.3 0-.6.1-.8c.1-.2.3-.4.5-.6c.2-.2.5-.3.8-.4c.3-.1.6-.2.9-.2c1.7 0 2.6.7 2.6 2.2h-1.5c0-.6-.4-.8-1-.8h-.3c-.2 0-.3 0-.3.1c-.1 0-.2.1-.2.1c-.1.1-.1.2-.1.3v.1c0 .1.1.1.2.2c.1 0 .2.1.4.1c.2.1.4.1.8.2l1 .3c.2.1.5.2.7.4c.1.1.3.3.4.5c.1.2.1.5.1.8c0 .3-.1.6-.2.8c-.1.3-.3.5-.5.7c-.2.2-.5.3-.8.4c-.3.1-.7.2-1.1.2z" stroke="none" fill="#fff"/></g></svg>