<?xml version="1.0" standalone="no"?><!DOCTYPE svg PUBLIC "-//W3C//DTD SVG 1.1//EN" "http://www.w3.org/Graphics/SVG/1.1/DTD/svg11.dtd"><svg xmlns="http://www.w3.org/2000/svg" version="1.1" width="51.4px" height="25.5px" viewBox="0 -1 51.4 25.5" style="top:-1px"><desc>LIFT App</desc><defs/><g id="Polygon124613"><path d="m6.6 11.4H1V2.8h1.6v7.1h4v1.5zm3 0H8V2.8h1.6v8.6zm8-7.1h-4.4v2h3.8v1.5h-3.8v3.6h-1.6V2.8h6v1.5zm7.9 0h-2.7v7.1h-1.6V4.3h-2.7V2.8h7v1.5zm8.8 3.3l-1.1-2.7l-1 2.7h2.1zm3.2 3.8h-1.8L34.8 9h-3.1l-.9 2.4h-1.7l3.4-8.6h1.5l3.5 8.6zm2.4-5.9c.2-.1.4-.3.6-.3c.3-.1.5-.2.8-.2c.4 0 .8.1 1.1.3c.3.1.6.3.8.6c.2.3.4.6.5 1c.1.4.2.9.2 1.4c0 .5-.1.9-.2 1.3c-.2.4-.3.8-.6 1.1c-.2.2-.5.5-.8.6c-.4.2-.7.3-1.1.3c-.3 0-.5-.1-.7-.1c-.2-.1-.4-.1-.6-.3c-.02.04 0 2.4 0 2.4h-1.6V5.2h1.6s-.02.3 0 .3zm0 4.2c.4.4.8.6 1.2.6c.4 0 .7-.2.9-.5c.2-.4.3-.9.3-1.5c0-.7-.1-1.2-.3-1.5c-.2-.3-.5-.4-.8-.4c-.5 0-.9.2-1.3.8v2.5zm6.9-4.2c.2-.1.5-.3.7-.3c.2-.1.5-.2.7-.2c.4 0 .8.1 1.1.3c.4.1.6.3.9.6c.2.3.3.6.5 1c.1.4.1.9.1 1.4c0 .5 0 .9-.2 1.3c-.1.4-.3.8-.5 1.1c-.3.2-.6.5-.9.6c-.3.2-.7.3-1.1.3c-.2 0-.4-.1-.7-.1c-.2-.1-.4-.1-.6-.3c.03.04 0 2.4 0 2.4h-1.5V5.2h1.5s.03.3 0 .3zm0 4.2c.4.4.8.6 1.3.6c.3 0 .6-.2.8-.5c.3-.4.4-.9.4-1.5c0-.7-.1-1.2-.3-1.5c-.2-.3-.5-.4-.9-.4c-.4 0-.9.2-1.3.8v2.5z" stroke="none" fill="#fff"/></g></svg>