<?xml version="1.0" standalone="no"?><!DOCTYPE svg PUBLIC "-//W3C//DTD SVG 1.1//EN" "http://www.w3.org/Graphics/SVG/1.1/DTD/svg11.dtd"><svg xmlns="http://www.w3.org/2000/svg" version="1.1" width="167px" height="34.5px" viewBox="0 -1 167 34.5" style="top:-1px"><desc>BeTouch App (Uber)</desc><defs/><g id="Polygon119071"><path d="m11.1 12.9c0 1.2-.4 2.2-1.2 2.8c-.8.7-2 1-3.6 1H1.5V4.1h4.6c.7 0 1.3.1 1.8.2c.6.2 1.1.4 1.4.7c.4.3.7.7.9 1.1c.3.4.4.9.4 1.4c0 .5-.1 1-.3 1.4c-.2.4-.5.8-1 1.1c.4.1.6.3.8.5c.3.2.5.4.6.7c.1.2.3.5.3.8c.1.3.1.6.1.9zM3.8 9.1s2.28-.03 2.3 0c.7 0 1.3-.1 1.6-.4c.4-.2.5-.5.5-1.1c0-.2 0-.4-.1-.6c-.1-.1-.2-.3-.4-.4c-.2-.1-.4-.2-.7-.2c-.3-.1-.6-.1-1.1-.1c.04-.02-2.1 0-2.1 0v2.8zm0 5.4s2.52.04 2.5 0c1.6 0 2.4-.5 2.4-1.6c0-.3 0-.6-.1-.8c-.1-.2-.2-.3-.4-.5c-.2-.1-.5-.2-.8-.3c-.4-.1-.8-.1-1.3-.1H3.8v3.3zm13.6 2.4c-.7 0-1.3-.1-1.9-.3c-.5-.2-1-.5-1.4-.9c-.4-.4-.7-.9-.9-1.5c-.2-.6-.3-1.3-.3-2.1c0-.7.1-1.4.3-1.9c.2-.6.5-1.1.9-1.5c.4-.5.8-.8 1.3-1c.6-.2 1.2-.3 1.8-.3c.7 0 1.3.1 1.8.3c.5.2 1 .5 1.4.9c.3.4.6.9.8 1.5c.2.6.3 1.3.3 2c.02.04 0 .8 0 .8c0 0-6.25-.03-6.3 0l.3.9c.1.3.3.5.5.7c.2.1.4.3.6.4c.2.1.5.1.8.1c.2 0 .4 0 .6-.1c.2-.1.3-.2.5-.3c.2-.1.3-.3.4-.5c.1-.2.2-.4.2-.6h2.3c-.1.5-.2 1-.4 1.4c-.3.5-.6.8-.9 1.1c-.4.3-.8.5-1.3.7c-.4.1-.9.2-1.4.2zm1.7-5.9c-.1-.6-.4-1-.7-1.3c-.3-.3-.7-.4-1.2-.4c-.4 0-.8.1-1.2.4c-.3.3-.6.7-.7 1.3h3.8zM33 6.3h-3.9v10.4h-2.4V6.3h-3.9V4.1H33v2.2zm5.5 1.1c.7 0 1.3.1 1.8.3c.5.2 1 .5 1.4.9c.3.4.6.9.8 1.5c.2.6.3 1.3.3 2c0 .8-.1 1.5-.3 2.1c-.2.6-.5 1.1-.9 1.5c-.3.4-.8.7-1.3.9c-.6.2-1.1.3-1.8.3c-.6 0-1.2-.1-1.8-.3c-.5-.2-.9-.5-1.3-.9c-.4-.4-.7-.9-.9-1.5c-.2-.6-.3-1.3-.3-2.1c0-.7.1-1.4.3-2c.2-.6.5-1.1.9-1.5c.3-.4.8-.7 1.3-.9c.6-.2 1.2-.3 1.8-.3zm0 7.6c.3 0 .6-.1.8-.2c.3-.1.5-.3.7-.5c.1-.3.3-.5.4-.9c.1-.4.1-.8.1-1.3c0-.4 0-.8-.1-1.2c-.1-.4-.3-.7-.4-.9c-.2-.2-.4-.4-.7-.5c-.2-.2-.5-.2-.8-.2c-.3 0-.6 0-.8.2c-.3.1-.5.3-.7.5c-.1.2-.3.5-.4.9c-.1.4-.1.8-.1 1.2c0 .5 0 .9.1 1.3c.1.4.3.6.4.9c.2.2.4.4.7.5c.2.1.5.2.8.2zm11.7 1.2c-.6.5-1.4.7-2.1.7c-2.2 0-3.3-1.1-3.3-3.5c.04.04 0-5.8 0-5.8h2.3s.02 5.76 0 5.8c0 .5.1.9.3 1.2c.2.2.5.3.9.3c.7 0 1.3-.3 1.9-1.1V7.6h2.3v9.1h-2.3v-.5zm8.6.7c-.6 0-1.2-.1-1.7-.3c-.6-.2-1-.5-1.4-.9c-.4-.4-.7-.9-.9-1.5c-.2-.6-.3-1.3-.3-2.1c0-.7.1-1.4.3-2c.2-.6.5-1.1.9-1.5c.4-.4.8-.7 1.4-.9c.5-.2 1.1-.3 1.7-.3c.5 0 1 .1 1.4.2c.5.2.8.4 1.2.7c.3.3.6.6.8 1.1c.2.4.4.9.5 1.4h-2.4c0-.2-.1-.4-.1-.6c-.1-.2-.2-.4-.3-.5c-.2-.1-.3-.2-.5-.3c-.2-.1-.4-.1-.6-.1c-.3 0-.5 0-.8.2c-.2.1-.4.3-.6.5c-.2.2-.3.5-.4.9c-.1.4-.2.8-.2 1.2c0 .5.1.9.2 1.3c.1.4.2.6.4.9c.2.2.4.4.6.5c.3.1.5.2.8.2c.2 0 .4 0 .6-.1c.1-.1.3-.2.4-.3c.2-.1.3-.3.4-.5c0-.2.1-.4.1-.6h2.4c-.1.5-.3 1-.5 1.5c-.2.4-.5.8-.8 1c-.4.3-.8.5-1.2.7c-.4.1-.9.2-1.4.2zm7.7-8.8c.6-.5 1.3-.7 2.1-.7c2.2 0 3.2 1.1 3.2 3.5c.03-.04 0 5.8 0 5.8h-2.2s-.03-5.78 0-5.8c0-.5-.1-.9-.3-1.2c-.2-.2-.5-.3-.9-.3c-.6 0-1.3.3-1.9 1.1v6.2h-2.3V4.4h2.3s-.01 3.73 0 3.7zm19 3l-1.5-4l-1.5 4h3zm4.7 5.6h-2.6l-1.4-3.6h-4.4l-1.3 3.6H78l4.9-12.6h2.2l5.1 12.6zm3.5-8.6c.3-.3.7-.4 1-.6c.3-.1.7-.1 1.1-.1c.6 0 1.1.1 1.6.3c.5.2.9.6 1.2 1c.3.4.6.9.7 1.5c.2.5.3 1.2.3 1.9c0 .7-.1 1.4-.3 2c-.2.6-.5 1.1-.8 1.5c-.4.4-.8.7-1.3 1c-.5.2-1 .3-1.5.3c-.4 0-.8 0-1.1-.1c-.3-.1-.6-.2-.9-.4c.04.04 0 3.5 0 3.5h-2.2V7.6h2.2s.04.45 0 .5zm0 6.1c.6.5 1.2.8 1.9.8c.5 0 .9-.2 1.2-.7c.3-.5.5-1.3.5-2.2c0-.9-.2-1.6-.5-2.1c-.2-.5-.6-.7-1.2-.7c-.6 0-1.3.4-1.9 1.2v3.7zm10.2-6.1c.3-.3.6-.4 1-.6c.3-.1.6-.1 1-.1c.6 0 1.2.1 1.7.3c.4.2.8.6 1.2 1c.3.4.5.9.7 1.5c.2.5.3 1.2.3 1.9c0 .7-.1 1.4-.3 2c-.2.6-.5 1.1-.9 1.5c-.3.4-.7.7-1.2 1c-.5.2-1 .3-1.6.3c-.3 0-.7 0-1-.1c-.3-.1-.6-.2-.9-.4v3.5h-2.2V7.6h2.2v.5zm0 6.1c.6.5 1.2.8 1.8.8c.6 0 1-.2 1.3-.7c.3-.5.5-1.3.5-2.2c0-.9-.2-1.6-.5-2.1c-.3-.5-.7-.7-1.2-.7c-.7 0-1.3.4-1.9 1.2v3.7zm15.1 5.9c-2-2.6-3-5.2-3-7.9c0-2.8 1-5.4 3-8h1.8c-1.7 2.8-2.6 5.5-2.6 8c0 2.4.9 5.1 2.6 7.9H119zm8.9-3.2c-.8 0-1.5-.1-2.1-.2c-.5-.2-1-.4-1.4-.7c-.3-.2-.6-.6-.8-.9c-.3-.4-.4-.8-.5-1.2c-.1-.4-.2-.8-.2-1.3c-.1-.4-.1-.8-.1-1.3c.03.03 0-7.2 0-7.2h2.4s-.02 7.21 0 7.2c0 .7 0 1.3.2 1.8c.1.4.2.8.5 1c.2.3.5.4.8.5c.4.1.7.2 1.2.2c.4 0 .8-.1 1.1-.2c.4-.1.7-.2.9-.5c.2-.3.4-.6.5-1.1c.1-.4.2-1 .2-1.7c-.04.01 0-7.2 0-7.2h2.3s.03 7.23 0 7.2c0 .9 0 1.7-.2 2.4c-.2.7-.4 1.3-.8 1.7c-.4.5-.9.9-1.5 1.1c-.7.3-1.5.4-2.5.4zM138 8.1c.3-.3.6-.4.9-.6c.4-.1.7-.1 1.1-.1c.6 0 1.2.1 1.6.3c.5.2.9.6 1.2 1c.4.4.6.9.8 1.5c.1.5.2 1.2.2 1.9c0 .7-.1 1.4-.3 2c-.2.6-.4 1.1-.8 1.5c-.3.4-.8.7-1.2 1c-.5.2-1 .3-1.6.3c-.4 0-.7 0-1-.1c-.3-.1-.6-.2-.9-.4c-.02.04 0 .3 0 .3h-2.3V4.4h2.3s-.02 3.65 0 3.7zm0 6.1c.5.5 1.1.8 1.8.8c.5 0 1-.2 1.3-.7c.3-.5.4-1.3.4-2.2c0-.9-.1-1.6-.4-2.1c-.3-.5-.7-.7-1.2-.7c-.7 0-1.3.4-1.9 1.2v3.7zm11.8 2.7c-.6 0-1.2-.1-1.8-.3c-.5-.2-1-.5-1.4-.9c-.4-.4-.7-.9-.9-1.5c-.2-.6-.4-1.3-.4-2.1c0-.7.2-1.4.4-1.9c.2-.6.5-1.1.8-1.5c.4-.5.9-.8 1.4-1c.5-.2 1.1-.3 1.8-.3c.6 0 1.2.1 1.8.3c.5.2.9.5 1.3.9c.4.4.7.9.9 1.5c.2.6.3 1.3.3 2v.8s-6.29-.03-6.3 0l.3.9c.1.3.3.5.5.7c.1.1.3.3.6.4c.2.1.5.1.7.1c.2 0 .4 0 .6-.1l.6-.3c.1-.1.3-.3.4-.5c.1-.2.1-.4.1-.6h2.4c-.1.5-.2 1-.5 1.4c-.2.5-.5.8-.9 1.1c-.3.3-.7.5-1.2.7c-.5.1-1 .2-1.5.2zm1.8-5.9c-.2-.6-.4-1-.7-1.3c-.4-.3-.8-.4-1.2-.4c-.5 0-.9.1-1.2.4c-.4.3-.6.7-.7 1.3h3.8zm9.5-1.2c-.2 0-.5-.1-.7-.2h-.6c-.3 0-.5.1-.8.2c-.3.2-.5.4-.8.7c.05.03 0 6.2 0 6.2H156V7.6h2.2s.05.52 0 .5c.6-.5 1.2-.7 1.9-.7h.4c.2 0 .4.1.6.1v2.3zm2.3-5.6c2 2.6 3 5.3 3 8c0 2.7-1 5.3-3 7.9h-1.9c.9-1.4 1.5-2.8 2-4.1c.4-1.3.6-2.6.6-3.8c0-1.3-.2-2.6-.6-3.9c-.5-1.3-1.1-2.7-2-4.1h1.9z" stroke="none" fill="#fff"/></g></svg>