<?xml version="1.0" standalone="no"?><!DOCTYPE svg PUBLIC "-//W3C//DTD SVG 1.1//EN" "http://www.w3.org/Graphics/SVG/1.1/DTD/svg11.dtd"><svg xmlns="http://www.w3.org/2000/svg" version="1.1" width="75.1px" height="34.5px" viewBox="0 -1 75.1 34.5" style="top:-1px"><desc>LIFT App</desc><defs/><g id="Polygon120236"><path d="m9.6 16.7H1.5V4.1h2.3v10.4h5.8v2.2zm4.5 0h-2.3V4.1h2.3v12.6zM25.7 6.3h-6.4v2.9h5.6v2.1h-5.6v5.4h-2.4V4.1h8.8v2.2zm11.6 0h-4v10.4H31V6.3h-3.9V4.1h10.2v2.2zm12.8 4.8l-1.5-4l-1.5 4h3zm4.7 5.6h-2.6l-1.4-3.6h-4.4l-1.3 3.6h-2.5l4.9-12.6h2.2l5.1 12.6zm3.5-8.6c.3-.3.6-.4 1-.6c.3-.1.7-.1 1-.1c.7 0 1.2.1 1.7.3c.5.2.9.6 1.2 1c.3.4.6.9.7 1.5c.2.5.3 1.2.3 1.9c0 .7-.1 1.4-.3 2c-.2.6-.5 1.1-.8 1.5c-.4.4-.8.7-1.3 1c-.5.2-1 .3-1.5.3c-.4 0-.8 0-1.1-.1c-.3-.1-.6-.2-.9-.4c.03.04 0 3.5 0 3.5h-2.2V7.6h2.2s.03.45 0 .5zm0 6.1c.6.5 1.2.8 1.9.8c.5 0 .9-.2 1.2-.7c.3-.5.5-1.3.5-2.2c0-.9-.2-1.6-.5-2.1c-.3-.5-.7-.7-1.2-.7c-.6 0-1.3.4-1.9 1.2v3.7zm10.2-6.1c.3-.3.6-.4.9-.6c.4-.1.7-.1 1.1-.1c.6 0 1.2.1 1.7.3c.4.2.8.6 1.2 1c.3.4.5.9.7 1.5c.2.5.3 1.2.3 1.9c0 .7-.1 1.4-.3 2c-.2.6-.5 1.1-.9 1.5c-.3.4-.7.7-1.2 1c-.5.2-1 .3-1.6.3c-.4 0-.7 0-1-.1c-.3-.1-.6-.2-.9-.4v3.5h-2.3V7.6h2.3v.5zm0 6.1c.6.5 1.2.8 1.8.8c.6 0 1-.2 1.3-.7c.3-.5.4-1.3.4-2.2c0-.9-.1-1.6-.4-2.1c-.3-.5-.7-.7-1.2-.7c-.7 0-1.3.4-1.9 1.2v3.7z" stroke="none" fill="#fff"/></g></svg>