<?xml version="1.0" standalone="no"?><!DOCTYPE svg PUBLIC "-//W3C//DTD SVG 1.1//EN" "http://www.w3.org/Graphics/SVG/1.1/DTD/svg11.dtd"><svg xmlns="http://www.w3.org/2000/svg" version="1.1" width="67.3px" height="25.5px" viewBox="0 -1 67.3 25.5" style="top:-1px"><desc>DeDeal App</desc><defs/><g id="Polygon124065"><path d="m3.9 2.8c2.9 0 4.4 1.4 4.4 4.3c0 2.9-1.5 4.3-4.4 4.3c-.04.02-2.9 0-2.9 0V2.8h2.9s-.04.01 0 0zm2.7 4.3c0-.5 0-.9-.1-1.2c-.1-.3-.2-.6-.5-.9c-.2-.2-.4-.4-.8-.5c-.4-.1-.8-.2-1.3-.2H2.6v5.6s1.25.04 1.3 0c.5 0 .9 0 1.3-.2c.3-.1.6-.3.8-.5c.3-.3.4-.6.5-.9c.1-.4.1-.8.1-1.2zm5.9 4.5c-.4 0-.8-.1-1.2-.3c-.4-.1-.7-.3-1-.6c-.3-.3-.5-.6-.6-1c-.2-.4-.2-.9-.2-1.4c0-.5 0-1 .2-1.4c.1-.4.3-.7.6-1c.2-.3.6-.5.9-.6c.4-.2.8-.3 1.2-.3c.5 0 .9.1 1.2.3c.4.1.7.3 1 .6c.2.3.4.6.6 1c.1.4.2.9.2 1.4c-.03 0 0 .5 0 .5h-4.3c0 .2.1.5.2.6c.1.2.2.4.3.5c.1.1.3.2.4.3c.2 0 .3.1.5.1c.2 0 .3-.1.4-.1c.2-.1.3-.1.4-.2l.3-.3c0-.2.1-.3.1-.5h1.6c0 .4-.2.7-.3 1c-.2.3-.4.6-.6.8c-.3.1-.6.3-.9.4c-.3.1-.6.2-1 .2zm1.2-4.1c-.1-.4-.2-.7-.5-.9c-.2-.2-.5-.2-.8-.2c-.3 0-.6 0-.8.2c-.2.2-.4.5-.5.9h2.6zm6.1-4.7c2.9 0 4.4 1.4 4.4 4.3c0 2.9-1.5 4.3-4.4 4.3c-.03.02-2.9 0-2.9 0V2.8h2.9s-.03.01 0 0zm2.7 4.3c0-.5 0-.9-.1-1.2c-.1-.3-.2-.6-.4-.9c-.3-.2-.5-.4-.9-.5c-.4-.1-.8-.2-1.3-.2h-1.3v5.6s1.26.04 1.3 0c.5 0 .9 0 1.3-.2c.4-.1.6-.3.8-.5c.3-.3.4-.6.5-.9c.1-.4.1-.8.1-1.2zm5.9 4.5c-.4 0-.8-.1-1.2-.3c-.4-.1-.7-.3-1-.6c-.3-.3-.5-.6-.6-1c-.2-.4-.2-.9-.2-1.4c0-.5 0-1 .2-1.4c.1-.4.3-.7.6-1c.2-.3.6-.5.9-.6c.4-.2.8-.3 1.2-.3c.5 0 .9.1 1.2.3c.4.1.7.3 1 .6c.2.3.4.6.6 1c.1.4.2.9.2 1.4c-.02 0 0 .5 0 .5H27c0 .2.1.5.2.6c.1.2.2.4.3.5c.1.1.3.2.4.3c.2 0 .4.1.5.1c.2 0 .3-.1.4-.1c.2-.1.3-.1.4-.2l.3-.3c.1-.2.1-.3.1-.5h1.6c0 .4-.2.7-.3 1c-.2.3-.4.6-.6.8c-.3.1-.5.3-.9.4c-.3.1-.6.2-1 .2zm1.2-4.1c-.1-.4-.2-.7-.5-.9c-.2-.2-.5-.2-.8-.2c-.3 0-.6 0-.8.2c-.2.2-.4.5-.5.9h2.6zm6.7 1.1s-.43.05-.4 0c-1.3 0-2 .4-2 1c0 .2.1.4.3.5c.1.1.4.2.7.2c.1 0 .2-.1.4-.1c.1 0 .3-.1.4-.1c.1-.1.2-.1.3-.2l.3-.3c.02-.01 0-1 0-1zm0 2.5c-.5.3-1.1.5-1.7.5c-.4 0-.6-.1-.9-.2c-.3-.1-.5-.2-.7-.4c-.2-.1-.4-.3-.5-.6c-.1-.2-.1-.5-.1-.7c0-1.6 1.2-2.3 3.7-2.3h.2v-.5c0-.1-.1-.2-.2-.3c0-.1-.2-.1-.3-.2h-.6c-.7 0-1.1.3-1.2.9h-1.5c.1-1.5 1-2.3 2.8-2.3c.4 0 .7.1 1 .2c.4 0 .6.2.9.3c.2.2.4.5.5.8c.1.3.2.7.2 1.2c-.05-.03 0 3.9 0 3.9h-1.6s.02-.3 0-.3zm4.8.3h-1.5V3h1.5v8.4zm9.1-3.8l-1-2.7l-1 2.7h2zm3.3 3.8h-1.8l-1-2.4h-3l-.9 2.4h-1.7l3.3-8.6h1.6l3.5 8.6zm2.4-5.9c.2-.1.4-.3.6-.3c.2-.1.5-.2.7-.2c.5 0 .8.1 1.2.3c.3.1.6.3.8.6c.2.3.4.6.5 1c.1.4.2.9.2 1.4c0 .5-.1.9-.2 1.3c-.2.4-.4.8-.6 1.1c-.3.2-.5.5-.9.6c-.3.2-.6.3-1 .3c-.3 0-.5-.1-.7-.1c-.2-.1-.4-.1-.6-.3c-.04.04 0 2.4 0 2.4h-1.6V5.2h1.6s-.04.3 0 .3zm0 4.2c.3.4.8.6 1.2.6c.4 0 .7-.2.9-.5c.2-.4.3-.9.3-1.5c0-.7-.1-1.2-.3-1.5c-.2-.3-.5-.4-.9-.4c-.4 0-.8.2-1.2.8v2.5zm6.9-4.2c.2-.1.4-.3.7-.3c.2-.1.4-.2.7-.2c.4 0 .8.1 1.1.3c.3.1.6.3.8.6c.3.3.4.6.5 1c.2.4.2.9.2 1.4c0 .5-.1.9-.2 1.3c-.1.4-.3.8-.6 1.1c-.2.2-.5.5-.8.6c-.3.2-.7.3-1.1.3c-.2 0-.5-.1-.7-.1c-.2-.1-.4-.1-.6-.3v2.4h-1.5V5.2h1.5v.3zm0 4.2c.4.4.8.6 1.3.6c.3 0 .6-.2.8-.5c.2-.4.3-.9.3-1.5c0-.7-.1-1.2-.3-1.5c-.2-.3-.4-.4-.8-.4c-.4 0-.9.2-1.3.8v2.5z" stroke="none" fill="#fff"/></g></svg>