<?xml version="1.0" standalone="no"?><!DOCTYPE svg PUBLIC "-//W3C//DTD SVG 1.1//EN" "http://www.w3.org/Graphics/SVG/1.1/DTD/svg11.dtd"><svg xmlns="http://www.w3.org/2000/svg" version="1.1" width="86.3px" height="25.5px" viewBox="0 -1 86.3 25.5" style="top:-1px"><desc>Bee App (Uber)</desc><defs/><g id="Polygon124846"><path d="m7.6 8.8c0 .9-.3 1.5-.8 2c-.6.4-1.4.6-2.5.6c.02.02-3.3 0-3.3 0V2.8h3.2c.4 0 .9.1 1.2.2c.4.1.7.2 1 .4c.3.2.5.5.6.8c.1.3.2.6.2.9c0 .4 0 .7-.2 1c-.1.3-.3.5-.6.7c.2.1.4.2.5.4c.2.1.3.3.4.4c.1.2.2.4.2.6c.1.2.1.4.1.6zm-5-2.6h1.6c.5 0 .8-.1 1.1-.2c.2-.2.3-.4.3-.8c0-.1 0-.3-.1-.4c0-.1-.1-.2-.2-.3c-.1-.1-.3-.1-.5-.2H2.6v1.9zm0 3.7s1.72.04 1.7 0C5.4 9.9 6 9.6 6 8.8c0-.2-.1-.4-.1-.5c-.1-.1-.2-.3-.3-.4c-.1 0-.3-.1-.6-.2h-.8c-.03-.03-1.6 0-1.6 0v2.2zm9.3 1.7c-.5 0-.9-.1-1.3-.3c-.3-.1-.7-.3-.9-.6c-.3-.3-.5-.6-.7-1c-.1-.4-.2-.9-.2-1.4c0-.5.1-1 .2-1.4c.2-.4.4-.7.6-1c.3-.3.6-.5 1-.6c.3-.2.7-.3 1.2-.3c.4 0 .8.1 1.2.3c.3.1.7.3.9.6c.3.3.5.6.6 1c.1.4.2.9.2 1.4c.02 0 0 .5 0 .5h-4.3c.1.2.1.5.2.6c.1.2.2.4.3.5c.2.1.3.2.5.3c.1 0 .3.1.5.1c.1 0 .2-.1.4-.1c.1-.1.2-.1.4-.2c.1-.1.1-.2.2-.3c.1-.2.1-.3.1-.5h1.7c-.1.4-.2.7-.4 1c-.1.3-.3.6-.6.8c-.2.1-.5.3-.8.4c-.3.1-.7.2-1 .2zm1.2-4.1c-.1-.4-.3-.7-.5-.9c-.3-.2-.5-.2-.8-.2c-.3 0-.6 0-.8.2c-.3.2-.4.5-.5.9h2.6zm5.7 4.1c-.4 0-.8-.1-1.2-.3c-.4-.1-.7-.3-1-.6c-.3-.3-.5-.6-.6-1c-.2-.4-.2-.9-.2-1.4c0-.5 0-1 .2-1.4c.1-.4.3-.7.6-1c.2-.3.5-.5.9-.6c.4-.2.8-.3 1.2-.3c.5 0 .9.1 1.2.3c.4.1.7.3 1 .6c.2.3.4.6.6 1c.1.4.2.9.2 1.4c-.03 0 0 .5 0 .5h-4.3c0 .2.1.5.2.6c.1.2.2.4.3.5c.1.1.3.2.4.3c.2 0 .3.1.5.1c.2 0 .3-.1.4-.1c.2-.1.3-.1.4-.2l.3-.3c0-.2.1-.3.1-.5h1.6c-.1.4-.2.7-.3 1c-.2.3-.4.6-.6.8c-.3.1-.6.3-.9.4c-.3.1-.6.2-1 .2zM20 7.5c-.1-.4-.2-.7-.5-.9c-.2-.2-.5-.2-.8-.2c-.3 0-.6 0-.8.2c-.2.2-.4.5-.5.9h2.6zm10.7.1l-1.1-2.7l-1 2.7h2.1zm3.2 3.8h-1.8L31.2 9h-3l-.9 2.4h-1.7l3.3-8.6h1.5l3.5 8.6zm2.4-5.9c.2-.1.4-.3.6-.3c.3-.1.5-.2.8-.2c.4 0 .8.1 1.1.3c.3.1.6.3.8.6c.2.3.4.6.5 1c.1.4.2.9.2 1.4c0 .5-.1.9-.2 1.3c-.1.4-.3.8-.6 1.1c-.2.2-.5.5-.8.6c-.3.2-.7.3-1.1.3c-.2 0-.5-.1-.7-.1c-.2-.1-.4-.1-.6-.3v2.4h-1.5V5.2h1.5v.3zm0 4.2c.4.4.8.6 1.3.6c.3 0 .6-.2.8-.5c.2-.4.3-.9.3-1.5c0-.7-.1-1.2-.3-1.5c-.2-.3-.5-.4-.8-.4c-.5 0-.9.2-1.3.8v2.5zm7-4.2c.2-.1.4-.3.6-.3c.2-.1.5-.2.7-.2c.5 0 .8.1 1.1.3c.4.1.6.3.9.6c.2.3.4.6.5 1c.1.4.2.9.2 1.4c0 .5-.1.9-.3 1.3c-.1.4-.3.8-.5 1.1c-.3.2-.5.5-.9.6c-.3.2-.7.3-1 .3c-.3 0-.5-.1-.7-.1c-.2-.1-.5-.1-.6-.3c-.05.04 0 2.4 0 2.4h-1.6V5.2h1.6s-.05.3 0 .3zm0 4.2c.3.4.7.6 1.2.6c.4 0 .6-.2.9-.5c.2-.4.3-.9.3-1.5c0-.7-.1-1.2-.3-1.5c-.2-.3-.5-.4-.9-.4c-.4 0-.8.2-1.2.8v2.5zm10.2 4c-1.3-1.7-2-3.5-2-5.4c0-1.8.7-3.7 2-5.4h1.3C53.6 4.8 53 6.6 53 8.3c0 1.7.6 3.5 1.8 5.4h-1.3zm6.1-2.1c-.5 0-1-.1-1.3-.2c-.4-.1-.8-.3-1-.4c-.3-.2-.5-.4-.6-.7c-.2-.2-.3-.5-.3-.8c-.1-.3-.2-.6-.2-.9v-.9c-.02.05 0-4.9 0-4.9h1.6v4.9c0 .5 0 .9.1 1.2c.1.3.2.6.4.7c.1.2.3.3.5.4c.3.1.5.1.8.1c.3 0 .6 0 .8-.1c.3-.1.5-.2.6-.4c.2-.1.3-.4.4-.7c0-.3.1-.7.1-1.2c-.03.03 0-4.9 0-4.9h1.6v4.9c0 .6-.1 1.2-.2 1.7c-.1.4-.3.8-.5 1.2c-.3.3-.6.5-1.1.7c-.4.2-1 .3-1.7.3zm6.9-6.1c.2-.1.5-.3.7-.3c.2-.1.5-.2.7-.2c.4 0 .8.1 1.1.3c.4.1.6.3.9.6c.2.3.4.6.5 1c.1.4.1.9.1 1.4c0 .5 0 .9-.2 1.3c-.1.4-.3.8-.5 1.1c-.3.2-.5.5-.9.6c-.3.2-.7.3-1 .3c-.3 0-.5-.1-.7-.1c-.3-.1-.5-.1-.7-.3c.04.04 0 .2 0 .2H65V3h1.5s.04 2.5 0 2.5zm0 4.2c.4.4.8.6 1.3.6c.4 0 .6-.2.9-.5c.2-.4.3-.9.3-1.5c0-.7-.1-1.2-.3-1.5c-.2-.3-.5-.4-.9-.4c-.4 0-.8.2-1.3.8v2.5zm8.1 1.9c-.4 0-.8-.1-1.2-.3c-.4-.1-.7-.3-1-.6c-.2-.3-.4-.6-.6-1c-.1-.4-.2-.9-.2-1.4c0-.5.1-1 .2-1.4c.1-.4.3-.7.6-1c.3-.3.6-.5.9-.6c.4-.2.8-.3 1.2-.3c.5 0 .9.1 1.3.3c.3.1.6.3.9.6c.2.3.4.6.6 1c.1.4.2.9.2 1.4v.5h-4.3c0 .2.1.5.2.6c.1.2.2.4.3.5c.1.1.3.2.4.3c.2 0 .4.1.5.1c.2 0 .3-.1.5-.1c.1-.1.2-.1.3-.2l.3-.3c.1-.2.1-.3.1-.5h1.6c0 .4-.1.7-.3 1c-.2.3-.4.6-.6.8c-.3.1-.5.3-.8.4c-.4.1-.7.2-1.1.2zm1.2-4.1c-.1-.4-.2-.7-.5-.9c-.2-.2-.4-.2-.8-.2c-.3 0-.5 0-.8.2c-.2.2-.4.5-.5.9h2.6zm6.6-.8c-.2 0-.4-.1-.5-.1c-.2 0-.3-.1-.4-.1c-.2 0-.4.1-.6.2c-.2.1-.3.3-.5.5v4.2h-1.5V5.2h1.5v.4c.4-.4.8-.6 1.2-.6c.1 0 .2.1.3.1h.5v1.6zm1.5-3.8C85.3 4.6 86 6.5 86 8.3c0 1.9-.7 3.7-2.1 5.4h-1.3c.6-.9 1.1-1.9 1.4-2.8c.3-.9.4-1.7.4-2.6c0-.8-.1-1.7-.4-2.6c-.3-.9-.8-1.9-1.4-2.8h1.3z" stroke="none" fill="#fff"/></g></svg>