<?xml version="1.0" standalone="no"?><!DOCTYPE svg PUBLIC "-//W3C//DTD SVG 1.1//EN" "http://www.w3.org/Graphics/SVG/1.1/DTD/svg11.dtd"><svg xmlns="http://www.w3.org/2000/svg" version="1.1" width="62.2px" height="25.5px" viewBox="0 -1 62.2 25.5" style="top:-1px"><desc>Fullscreen</desc><defs/><g id="Polygon126066"><path d="m7 4.3H2.6v2h3.8v1.5H2.6v3.6H1V2.8h6v1.5zm5.1 6.7c-.4.4-.9.6-1.4.6c-1.5 0-2.2-.8-2.2-2.4c-.04-.01 0-4 0-4h1.5s.02 3.94 0 3.9c0 .4.1.7.2.9c.1.1.3.2.6.2c.5 0 .9-.2 1.3-.7c.03-.04 0-4.3 0-4.3h1.6v6.2h-1.6s.03-.36 0-.4zm4.8.4h-1.5V3h1.5v8.4zm3 0h-1.5V3h1.5v8.4zm3.8.2c-1.7 0-2.6-.8-2.7-2.4h1.6c0 .7.4 1.1 1.1 1.1c.4 0 .6-.1.8-.2c.2-.2.3-.3.3-.5c0-.1-.1-.2-.1-.2c0-.1-.1-.1-.2-.2c-.1 0-.3-.1-.5-.1c-.2-.1-.4-.2-.7-.2c-.4-.1-.7-.2-1-.3c-.2-.1-.5-.2-.6-.4c-.2-.1-.3-.3-.4-.5c-.1-.2-.2-.4-.2-.7c0-.3.1-.6.2-.8c.1-.2.3-.4.5-.6c.2-.2.5-.3.8-.4c.2-.1.6-.2.9-.2c1.7 0 2.6.7 2.6 2.2h-1.5c0-.6-.4-.8-1-.8h-.4c-.1 0-.2 0-.3.1c0 0-.1.1-.2.1v.4c0 .1.1.1.2.2c.1 0 .2.1.4.1c.2.1.4.1.7.2c.4.1.8.2 1 .3c.3.1.6.2.7.4c.2.1.4.3.5.5c0 .2.1.5.1.8c0 .3-.1.6-.2.8c-.1.3-.3.5-.5.7c-.2.2-.5.3-.8.4c-.3.1-.7.2-1.1.2zm6.6 0c-.4 0-.8-.1-1.2-.3c-.4-.1-.7-.3-.9-.6c-.3-.3-.5-.6-.6-1c-.2-.4-.3-.9-.3-1.4c0-.5.1-1 .2-1.4c.2-.4.4-.7.6-1c.3-.3.6-.5 1-.6c.3-.2.7-.3 1.2-.3c.3 0 .7.1 1 .2c.2.1.5.3.7.5c.3.2.5.4.6.7c.2.3.3.6.3 1h-1.6c0-.2 0-.3-.1-.4c0-.2-.1-.3-.2-.4c-.1-.1-.2-.1-.3-.2h-.4c-.2 0-.4 0-.6.1c-.1.1-.3.2-.4.3c-.1.2-.2.4-.3.7c-.1.2-.1.5-.1.8c0 .3 0 .6.1.9l.3.6c.1.1.3.3.4.3c.2.1.4.2.6.2c.1 0 .2-.1.4-.1c.1-.1.2-.1.3-.2c.1-.1.1-.2.2-.3c.1-.2.1-.3.1-.5h1.6c0 .4-.1.7-.3 1c-.2.3-.3.6-.6.8c-.2.2-.5.3-.8.4c-.2.1-.6.2-.9.2zm7.2-4.9c-.2 0-.4-.1-.5-.1c-.2 0-.3-.1-.4-.1c-.2 0-.4.1-.6.2c-.2.1-.3.3-.5.5v4.2H34V5.2h1.5v.4c.4-.4.8-.6 1.2-.6c.1 0 .2.1.3.1h.5v1.6zm3.5 4.9c-.5 0-.9-.1-1.3-.3c-.4-.1-.7-.3-1-.6c-.2-.3-.4-.6-.6-1c-.1-.4-.2-.9-.2-1.4c0-.5.1-1 .2-1.4c.1-.4.3-.7.6-1c.3-.3.6-.5.9-.6c.4-.2.8-.3 1.2-.3c.5 0 .9.1 1.3.3c.3.1.6.3.9.6c.3.3.5.6.6 1c.1.4.2.9.2 1.4v.5h-4.3c0 .2.1.5.2.6c.1.2.2.4.3.5c.1.1.3.2.4.3c.2 0 .4.1.6.1c.1 0 .2-.1.4-.1c.1-.1.2-.1.3-.2l.3-.3c.1-.2.1-.3.1-.5h1.6c0 .4-.1.7-.3 1c-.2.3-.4.6-.6.8c-.2.1-.5.3-.8.4c-.4.1-.7.2-1 .2zm1.1-4.1c-.1-.4-.2-.7-.4-.9c-.3-.2-.5-.2-.9-.2c-.3 0-.5 0-.8.2c-.2.2-.4.5-.5.9h2.6zm5.8 4.1c-.4 0-.9-.1-1.2-.3c-.4-.1-.7-.3-1-.6c-.3-.3-.5-.6-.6-1c-.2-.4-.3-.9-.3-1.4c0-.5.1-1 .3-1.4c.1-.4.3-.7.6-1c.2-.3.5-.5.9-.6c.4-.2.8-.3 1.2-.3c.4 0 .9.1 1.2.3c.4.1.7.3.9.6c.3.3.5.6.6 1c.2.4.2.9.2 1.4c.05 0 0 .5 0 .5h-4.2c0 .2.1.5.1.6c.1.2.2.4.4.5c.1.1.2.2.4.3c.2 0 .3.1.5.1c.1 0 .3-.1.4-.1c.1-.1.3-.1.4-.2l.3-.3c0-.2.1-.3.1-.5h1.6c-.1.4-.2.7-.3 1c-.2.3-.4.6-.7.8c-.2.1-.5.3-.8.4c-.3.1-.6.2-1 .2zm1.2-4.1c-.1-.4-.3-.7-.5-.9c-.2-.2-.5-.2-.8-.2c-.3 0-.6 0-.8.2c-.2.2-.4.5-.5.9h2.6zm4.6-1.9c.4-.4.9-.6 1.4-.6c1.5 0 2.3.8 2.3 2.4c-.05.02 0 4 0 4h-1.6V7.5c0-.4-.1-.7-.2-.9c-.1-.1-.3-.2-.6-.2c-.4 0-.9.2-1.3.8v4.2h-1.5V5.2h1.5v.4z" stroke="none" fill="#fff"/></g></svg>