<?xml version="1.0" standalone="no"?><!DOCTYPE svg PUBLIC "-//W3C//DTD SVG 1.1//EN" "http://www.w3.org/Graphics/SVG/1.1/DTD/svg11.dtd"><svg xmlns="http://www.w3.org/2000/svg" version="1.1" width="194.3px" height="34.5px" viewBox="0 -1 194.3 34.5" style="top:-1px"><desc>Alsharaf Cars Company</desc><defs/><g id="Polygon118527"><path d="m7.5 11.1l-1.6-4l-1.4 4h3zm4.7 5.6H9.6l-1.4-3.6H3.8l-1.3 3.6H0L4.8 4.1h2.3l5.1 12.6zm3.3 0h-2.2V4.4h2.2v12.3zm5.7.2c-2.6 0-3.9-1.1-4.1-3.4h2.3c0 1 .6 1.5 1.7 1.5c.5 0 .9-.1 1.2-.3c.2-.2.4-.4.4-.7c0-.1-.1-.2-.1-.3c-.1-.1-.2-.1-.3-.2c-.2-.1-.4-.2-.7-.2c-.3-.1-.6-.2-1.1-.3c-.5-.2-1-.3-1.4-.4c-.4-.2-.7-.3-1-.5c-.2-.2-.4-.5-.5-.8c-.2-.3-.2-.7-.2-1.1c0-.4.1-.8.2-1.1c.2-.4.4-.7.7-.9c.3-.3.7-.5 1.1-.6c.5-.1.9-.2 1.5-.2c2.4 0 3.7 1 3.7 3.1h-2.2c0-.8-.5-1.2-1.4-1.2h-.6c-.1.1-.3.1-.4.2c-.1 0-.2.1-.3.2c-.1.1-.1.2-.1.3c0 .1 0 .2.1.3c0 .1.1.1.2.2c.2 0 .4.1.6.2c.3.1.7.2 1.1.3c.6.1 1.1.3 1.5.4c.4.1.7.3 1 .5c.3.2.5.5.6.8c.1.3.2.7.2 1.2c0 .4-.1.8-.3 1.2c-.1.4-.4.7-.7.9c-.3.3-.7.5-1.2.7c-.5.1-1 .2-1.5.2zm8-8.8c.7-.5 1.4-.7 2.2-.7c2.1 0 3.2 1.1 3.2 3.5c-.02-.04 0 5.8 0 5.8h-2.3v-5.8c0-.5-.1-.9-.3-1.2c-.1-.2-.4-.3-.9-.3c-.6 0-1.2.3-1.9 1.1c.04-.04 0 6.2 0 6.2H27V4.4h2.2s.04 3.73 0 3.7zm13.3 4.6s-.69-.05-.7 0c-1.9 0-2.9.4-2.9 1.3c0 .4.2.6.4.8c.3.1.6.2 1 .2c.2 0 .4 0 .6-.1c.3 0 .4-.1.6-.1l.6-.3c.1-.2.3-.3.4-.5c-.03.03 0-1.3 0-1.3zm0 3.5c-.8.5-1.6.7-2.6.7c-.5 0-.9-.1-1.3-.2c-.4-.1-.7-.3-1-.6c-.3-.2-.5-.5-.7-.8c-.2-.4-.2-.8-.2-1.2c0-2.2 1.8-3.3 5.4-3.3h.4c0-.2-.1-.5-.1-.6c0-.2-.1-.4-.2-.5c-.1-.1-.3-.2-.5-.3c-.2-.1-.5-.1-.9-.1c-1.1 0-1.6.5-1.7 1.4h-2.2c.1-2.2 1.4-3.3 4-3.3c.6 0 1.1 0 1.6.1c.5.1.9.3 1.2.6c.3.3.6.6.7 1.1c.2.4.3 1 .3 1.7v5.8h-2.2s-.03-.46 0-.5zm9.9-6.4c-.3 0-.5-.1-.7-.2h-.6c-.3 0-.6.1-.8.2c-.3.2-.5.4-.8.7v6.2h-2.2V7.6h2.2v.5c.6-.5 1.2-.7 1.8-.7h.4c.2 0 .4.1.7.1v2.3zm6.5 2.9s-.69-.05-.7 0c-1.9 0-2.9.4-2.9 1.3c0 .4.2.6.4.8c.3.1.6.2 1 .2c.2 0 .4 0 .7-.1c.2 0 .4-.1.5-.1l.6-.3c.1-.2.3-.3.4-.5c-.03.03 0-1.3 0-1.3zm0 3.5c-.8.5-1.6.7-2.6.7c-.5 0-.9-.1-1.3-.2c-.4-.1-.7-.3-1-.6c-.3-.2-.5-.5-.7-.8c-.2-.4-.2-.8-.2-1.2c0-2.2 1.8-3.3 5.4-3.3h.4c0-.2-.1-.5-.1-.6c0-.2-.1-.4-.2-.5c-.1-.1-.3-.2-.5-.3c-.2-.1-.5-.1-.9-.1c-1.1 0-1.6.5-1.7 1.4h-2.2c.1-2.2 1.4-3.3 4-3.3c.6 0 1.1 0 1.6.1c.5.1.9.3 1.2.6c.3.3.6.6.7 1.1c.2.4.3 1 .3 1.7v5.8h-2.2s-.03-.46 0-.5zm7.2-6.7v7.2h-2.2V9.5h-1.2V7.6h1.2v-.4c0-2 .9-3 2.7-3h.8c.2.1.5.1.7.2v2c-.3-.1-.6-.1-.7-.1c-.2-.1-.4-.1-.6-.1c-.2 0-.4.1-.5.3c-.1.1-.2.4-.2.7c.05.02 0 .4 0 .4h1.6v1.9h-1.6zm16.2-1c0-.4-.1-.8-.2-1.1c-.2-.3-.4-.5-.6-.7c-.3-.3-.6-.4-.9-.5c-.3-.1-.7-.2-1.1-.2c-.5 0-1 .1-1.4.3c-.5.2-.8.5-1.1.8c-.4.4-.6.9-.8 1.4c-.1.6-.2 1.2-.2 1.9c0 .7.1 1.3.3 1.9c.1.5.4 1 .7 1.4c.3.3.6.6 1 .8c.5.2 1 .3 1.5.3c.4 0 .8 0 1.1-.2c.3-.1.6-.2.9-.5c.2-.2.4-.5.6-.8c.1-.3.2-.7.3-1.1h2.4c-.1.7-.3 1.4-.6 2c-.3.6-.6 1.1-1.1 1.5c-.5.4-1 .7-1.6.9c-.6.2-1.3.3-2 .3c-.9 0-1.7-.1-2.4-.5c-.8-.3-1.4-.7-1.9-1.3c-.5-.5-.9-1.2-1.2-2c-.3-.8-.4-1.7-.4-2.7c0-1 .1-1.9.4-2.7c.3-.8.7-1.5 1.2-2c.5-.6 1.1-1 1.9-1.4c.7-.3 1.5-.4 2.4-.4c.7 0 1.3.1 1.9.3c.6.2 1.2.5 1.6.9c.5.4.9.9 1.2 1.5c.3.5.5 1.2.6 1.9h-2.5zm10 4.2s-.61-.05-.6 0c-1.9 0-2.9.4-2.9 1.3c0 .4.2.6.4.8c.3.1.6.2 1 .2c.2 0 .4 0 .6-.1c.2 0 .4-.1.6-.1c.2-.1.4-.2.5-.3c.2-.2.3-.3.4-.5c.05.03 0-1.3 0-1.3zm0 3.5c-.7.5-1.6.7-2.5.7c-.5 0-.9-.1-1.3-.2c-.4-.1-.7-.3-1-.6c-.3-.2-.5-.5-.7-.8c-.2-.4-.3-.8-.3-1.2c0-2.2 1.9-3.3 5.5-3.3h.3v-.6c0-.2-.1-.4-.2-.5c-.1-.1-.3-.2-.5-.3c-.2-.1-.5-.1-.9-.1c-1.1 0-1.6.5-1.7 1.4h-2.2c.1-2.2 1.4-3.3 4-3.3c.6 0 1.1 0 1.6.1c.4.1.8.3 1.2.6c.3.3.5.6.7 1.1c.2.4.3 1 .3 1.7v5.8h-2.3s.05-.46 0-.5zm10-6.4c-.3 0-.5-.1-.7-.2h-.6c-.3 0-.6.1-.9.2c-.2.2-.5.4-.7.7v6.2h-2.2V7.6h2.2v.5c.5-.5 1.2-.7 1.8-.7h.4c.2 0 .4.1.7.1v2.3zm4.5 7.1c-2.5 0-3.9-1.1-4-3.4h2.3c0 1 .5 1.5 1.7 1.5c.5 0 .8-.1 1.1-.3c.3-.2.4-.4.4-.7c0-.1 0-.2-.1-.3c-.1-.1-.2-.1-.3-.2c-.2-.1-.4-.2-.7-.2c-.2-.1-.6-.2-1.1-.3c-.5-.2-1-.3-1.4-.4c-.4-.2-.7-.3-.9-.5c-.3-.2-.5-.5-.6-.8c-.1-.3-.2-.7-.2-1.1c0-.4.1-.8.3-1.1c.1-.4.4-.7.7-.9c.3-.3.6-.5 1.1-.6c.4-.1.9-.2 1.4-.2c2.5 0 3.7 1 3.8 3.1H108c0-.8-.5-1.2-1.4-1.2h-.5c-.2.1-.3.1-.5.2c-.1 0-.2.1-.3.2c0 .1-.1.2-.1.3c0 .1.1.2.1.3c0 .1.1.1.3.2c.1 0 .3.1.6.2c.2.1.6.2 1 .3c.6.1 1.1.3 1.5.4c.4.1.8.3 1 .5c.3.2.5.5.6.8c.2.3.2.7.2 1.2c0 .4-.1.8-.2 1.2c-.2.4-.5.7-.8.9c-.3.3-.7.5-1.2.7c-.4.1-.9.2-1.5.2zM126 8.5c-.1-.4-.2-.8-.3-1.1c-.2-.3-.4-.5-.6-.7c-.3-.3-.5-.4-.9-.5c-.3-.1-.7-.2-1.1-.2c-.5 0-1 .1-1.4.3c-.5.2-.8.5-1.1.8c-.3.4-.6.9-.7 1.4c-.2.6-.3 1.2-.3 1.9c0 .7.1 1.3.3 1.9c.1.5.4 1 .7 1.4c.3.3.6.6 1.1.8c.4.2.9.3 1.4.3c.4 0 .8 0 1.1-.2c.4-.1.6-.2.9-.5c.2-.2.4-.5.6-.8c.1-.3.2-.7.3-1.1h2.4c-.1.7-.3 1.4-.6 2c-.2.6-.6 1.1-1.1 1.5c-.4.4-1 .7-1.6.9c-.6.2-1.3.3-2 .3c-.9 0-1.7-.1-2.4-.5c-.7-.3-1.4-.7-1.9-1.3c-.5-.5-.9-1.2-1.2-2c-.2-.8-.4-1.7-.4-2.7c0-1 .2-1.9.4-2.7c.3-.8.7-1.5 1.2-2c.5-.6 1.2-1 1.9-1.4c.7-.3 1.5-.4 2.4-.4c.7 0 1.4.1 2 .3c.6.2 1.1.5 1.6.9c.4.4.8.9 1.1 1.5c.3.5.5 1.2.6 1.9H126zm8.4-1.1c.7 0 1.3.1 1.8.3c.6.2 1 .5 1.4.9c.4.4.7.9.9 1.5c.2.6.3 1.3.3 2c0 .8-.1 1.5-.4 2.1c-.2.6-.5 1.1-.8 1.5c-.4.4-.9.7-1.4.9c-.5.2-1.1.3-1.8.3c-.6 0-1.2-.1-1.7-.3c-.6-.2-1-.5-1.4-.9c-.4-.4-.7-.9-.9-1.5c-.2-.6-.3-1.3-.3-2.1c0-.7.1-1.4.3-2c.2-.6.5-1.1.9-1.5c.4-.4.8-.7 1.4-.9c.5-.2 1.1-.3 1.7-.3zm0 7.6c.3 0 .6-.1.8-.2c.3-.1.5-.3.7-.5c.2-.3.3-.5.4-.9c.1-.4.1-.8.1-1.3c0-.4 0-.8-.1-1.2c-.1-.4-.2-.7-.4-.9c-.2-.2-.4-.4-.7-.5c-.2-.2-.5-.2-.8-.2c-.3 0-.5 0-.8.2c-.2.1-.4.3-.6.5c-.2.2-.3.5-.4.9c-.1.4-.2.8-.2 1.2c0 .5.1.9.2 1.3c.1.4.2.6.4.9c.2.2.4.4.6.5c.3.1.5.2.8.2zm18.6 1.7h-2.2s-.04-5.78 0-5.8c0-.5-.1-1-.2-1.2c-.2-.2-.4-.3-.8-.3c-.5 0-1.1.3-1.7 1.1c-.02-.05 0 6.2 0 6.2h-2.3s.04-5.78 0-5.8c0-.5 0-1-.2-1.2c-.1-.2-.3-.3-.7-.3c-.5 0-1.1.3-1.7 1.1c-.04-.05 0 6.2 0 6.2h-2.3V7.6h2.3s-.04.52 0 .5c.3-.2.6-.4.9-.5c.3-.2.7-.2 1.1-.2c.5 0 1 .1 1.4.3c.4.2.8.5 1 .9c.3-.3.5-.5.7-.6c.2-.2.4-.3.6-.4c.2-.1.4-.2.6-.2h.6c1.9 0 2.9 1.1 2.9 3.5c.03-.04 0 5.8 0 5.8zm5.1-8.6c.3-.3.7-.4 1-.6c.3-.1.7-.1 1.1-.1c.6 0 1.1.1 1.6.3c.5.2.9.6 1.2 1c.3.4.6.9.7 1.5c.2.5.3 1.2.3 1.9c0 .7-.1 1.4-.3 2c-.2.6-.5 1.1-.8 1.5c-.4.4-.8.7-1.3 1c-.5.2-1 .3-1.5.3c-.4 0-.8 0-1.1-.1c-.3-.1-.6-.2-.9-.4c.04.04 0 3.5 0 3.5h-2.2V7.6h2.2s.04.45 0 .5zm0 6.1c.6.5 1.2.8 1.9.8c.5 0 .9-.2 1.2-.7c.3-.5.5-1.3.5-2.2c0-.9-.2-1.6-.5-2.1c-.2-.5-.6-.7-1.2-.7c-.6 0-1.3.4-1.9 1.2v3.7zm13.3-1.5s-.69-.05-.7 0c-1.9 0-2.9.4-2.9 1.3c0 .4.2.6.4.8c.3.1.6.2 1 .2c.2 0 .4 0 .6-.1c.2 0 .4-.1.6-.1l.6-.3c.1-.2.2-.3.4-.5c-.04.03 0-1.3 0-1.3zm0 3.5c-.8.5-1.6.7-2.6.7c-.5 0-.9-.1-1.3-.2c-.4-.1-.7-.3-1-.6c-.3-.2-.5-.5-.7-.8c-.2-.4-.2-.8-.2-1.2c0-2.2 1.8-3.3 5.4-3.3h.4c0-.2-.1-.5-.1-.6c0-.2-.1-.4-.2-.5c-.1-.1-.3-.2-.5-.3c-.2-.1-.5-.1-.9-.1c-1.1 0-1.6.5-1.7 1.4h-2.2c.1-2.2 1.4-3.3 4-3.3c.6 0 1.1 0 1.6.1c.5.1.9.3 1.2.6c.3.3.6.6.7 1.1c.2.4.3 1 .3 1.7v5.8h-2.2s-.04-.46 0-.5zm7.1-8.1c.6-.5 1.3-.7 2.1-.7c2.1 0 3.2 1.1 3.2 3.5v5.8h-2.3s.05-5.78 0-5.8c0-.5 0-.9-.2-1.2c-.2-.2-.5-.3-.9-.3c-.6 0-1.3.3-1.9 1.1c-.03-.04 0 6.2 0 6.2h-2.3V7.6h2.3s-.03.53 0 .5zm8.7 9.9c.5 0 1-.5 1.4-1.6c.02-.05-3.3-8.8-3.3-8.8h2.4l2 5.7l1.9-5.7h2.5s-3.37 8.87-3.4 8.9c-.2.5-.4 1-.6 1.4c-.2.5-.4.9-.6 1.2c-.3.3-.5.6-.9.7c-.3.2-.7.3-1.1.3h-.7c-.2-.1-.4-.1-.7-.2v-2.2c.3.1.5.2.7.2c.2.1.3.1.4.1z" stroke="none" fill="#fff"/></g></svg>