<?xml version="1.0" standalone="no"?><!DOCTYPE svg PUBLIC "-//W3C//DTD SVG 1.1//EN" "http://www.w3.org/Graphics/SVG/1.1/DTD/svg11.dtd"><svg xmlns="http://www.w3.org/2000/svg" version="1.1" width="48.2px" height="25.5px" viewBox="0 -1 48.2 25.5" style="top:-1px"><desc>70 Taste</desc><defs/><g id="Polygon123215"><path d="m6.2 4l-3 7.4H1.5l3-7h-4V3h5.7v1zm1 3.2c0-2.9.9-4.3 2.8-4.3c1.9 0 2.9 1.4 2.9 4.3c0 2.9-1 4.4-2.9 4.4c-1.9 0-2.8-1.5-2.8-4.4zm2.8 3.1c.2 0 .4-.1.6-.2c.1-.1.3-.3.4-.5c.1-.2.2-.5.2-.9c.1-.4.1-.9.1-1.5c0-.5 0-1-.1-1.4c0-.4-.1-.7-.2-1c-.1-.2-.3-.4-.4-.5c-.2-.1-.4-.1-.6-.1c-.2 0-.4 0-.5.1c-.2.1-.3.3-.4.5c-.1.3-.2.6-.2 1c-.1.4-.1.8-.1 1.4c0 .6 0 1.1.1 1.5c0 .4.1.7.2.9c.1.2.2.4.4.5c.1.1.3.2.5.2zm14.1-6h-2.7v7.1h-1.6V4.3h-2.7V2.8h7v1.5zm4.8 4.3s-.46.05-.5 0c-1.3 0-1.9.4-1.9 1c0 .2.1.4.2.5c.2.1.4.2.7.2c.2 0 .3-.1.5-.1c.1 0 .2-.1.4-.1c.1-.1.2-.1.3-.2l.3-.3v-1zm0 2.5c-.5.3-1.1.5-1.8.5c-.3 0-.6-.1-.8-.2c-.3-.1-.5-.2-.7-.4c-.2-.1-.4-.3-.5-.6c-.1-.2-.2-.5-.2-.7c0-1.6 1.3-2.3 3.7-2.3h.3v-.5c-.1-.1-.1-.2-.2-.3c-.1-.1-.2-.1-.3-.2h-.6c-.8 0-1.2.3-1.2.9h-1.5c.1-1.5 1-2.3 2.7-2.3c.4 0 .8.1 1.1.2c.3 0 .6.2.8.3c.3.2.4.5.5.8c.2.3.2.7.2 1.2c.02-.03 0 3.9 0 3.9h-1.5v-.3zm5.6.5c-1.7 0-2.6-.8-2.7-2.4h1.5c0 .7.4 1.1 1.2 1.1c.3 0 .6-.1.8-.2c.1-.2.2-.3.2-.5v-.2l-.2-.2c-.2 0-.3-.1-.5-.1c-.2-.1-.4-.2-.7-.2c-.4-.1-.7-.2-1-.3c-.3-.1-.5-.2-.7-.4c-.1-.1-.3-.3-.4-.5c0-.2-.1-.4-.1-.7c0-.3.1-.6.2-.8c.1-.2.3-.4.5-.6c.2-.2.4-.3.7-.4c.3-.1.6-.2 1-.2c1.7 0 2.5.7 2.6 2.2h-1.5c-.1-.6-.4-.8-1-.8h-.4c-.1 0-.2 0-.3.1c-.1 0-.1.1-.2.1c0 .1-.1.2-.1.3l.1.1c0 .1.1.1.2.2c.1 0 .2.1.4.1c.2.1.4.1.7.2c.4.1.7.2 1 .3c.3.1.5.2.7.4c.2.1.3.3.4.5c.1.2.2.5.2.8c0 .3-.1.6-.2.8c-.1.3-.3.5-.5.7c-.3.2-.5.3-.8.4c-.4.1-.7.2-1.1.2zm6.7-.2c-.2 0-.4.1-.6.1h-.4c-.4 0-.7 0-.9-.1c-.2-.1-.4-.2-.5-.4c-.1-.2-.2-.4-.2-.6v-.9c-.04-.01 0-3 0-3h-.7V5.2h.7V3.8h1.5v1.4h.9v1.3h-.9v3.4c0 .1.1.1.1.2c0 0 0 .1.1.1h.4c.2 0 .3-.1.5-.1v1.3zm3.6.2c-.5 0-.9-.1-1.3-.3c-.3-.1-.7-.3-.9-.6c-.3-.3-.5-.6-.7-1c-.1-.4-.2-.9-.2-1.4c0-.5.1-1 .2-1.4c.2-.4.4-.7.6-1c.3-.3.6-.5 1-.6c.3-.2.7-.3 1.2-.3c.4 0 .8.1 1.2.3c.4.1.7.3.9.6c.3.3.5.6.6 1c.2.4.2.9.2 1.4c.03 0 0 .5 0 .5h-4.3c.1.2.1.5.2.6c.1.2.2.4.3.5c.2.1.3.2.5.3c.1 0 .3.1.5.1c.1 0 .3-.1.4-.1c.1-.1.3-.1.4-.2c.1-.1.2-.2.2-.3c.1-.2.1-.3.1-.5h1.7c-.1.4-.2.7-.4 1c-.1.3-.3.6-.6.8c-.2.1-.5.3-.8.4c-.3.1-.7.2-1 .2zM46 7.5c-.1-.4-.3-.7-.5-.9c-.2-.2-.5-.2-.8-.2c-.3 0-.6 0-.8.2c-.3.2-.4.5-.5.9h2.6z" stroke="none" fill="#fff"/></g></svg>