<?xml version="1.0" standalone="no"?><!DOCTYPE svg PUBLIC "-//W3C//DTD SVG 1.1//EN" "http://www.w3.org/Graphics/SVG/1.1/DTD/svg11.dtd"><svg xmlns="http://www.w3.org/2000/svg" version="1.1" width="342px" height="77.7px" viewBox="0 -1 342 77.7" style="top:-1px"><desc>Abdelrahman Hani</desc><defs/><g id="Polygon122663"><path d="m18.7 27.2l-5.2-13.8l-5.1 13.8h10.3zm9 12.1h-4.4l-3.5-9H7.4l-3.3 9H0L11.4 9.7h4.2l12.1 29.6zm6.6-18.9c1.6-2 3.7-3 6.1-3c1.4 0 2.6.2 3.7.8c1.1.5 2 1.2 2.8 2.2c.7 1 1.3 2.1 1.7 3.5c.4 1.3.6 2.8.6 4.5c0 1.7-.2 3.3-.7 4.7c-.4 1.4-1.1 2.6-1.9 3.6c-.8 1-1.7 1.8-2.9 2.3c-1.1.6-2.3.8-3.6.8c-2.3 0-4.3-.7-5.8-2.2c-.04.04 0 1.7 0 1.7h-3.9V9.7h3.9s-.04 10.71 0 10.7zm0 13.8c1.6 1.7 3.5 2.6 5.6 2.6c1.7 0 3-.7 3.9-2.1c1-1.3 1.4-3.4 1.4-6.3c0-2.7-.4-4.7-1.3-6.1c-.9-1.3-2.2-2-3.9-2c-2.1 0-4 1.3-5.7 3.7v10.2zm27 2.6c2.1 0 4-1.2 5.8-3.7V22.9c-1.7-1.7-3.6-2.6-5.7-2.6c-1.6 0-2.9.7-3.9 2.1c-1 1.4-1.4 3.5-1.4 6.4c0 2.7.4 4.7 1.4 6c.9 1.3 2.2 2 3.8 2zm5.8-.1c-1.7 2.1-3.8 3.1-6.1 3.1c-1.4 0-2.7-.2-3.7-.7c-1.1-.6-2.1-1.3-2.8-2.2c-.8-1-1.3-2.2-1.7-3.5c-.4-1.4-.6-2.9-.6-4.6c0-1.8.2-3.4.6-4.8c.5-1.4 1.1-2.6 1.9-3.6c.8-.9 1.8-1.7 2.9-2.2c1.1-.6 2.3-.8 3.6-.8c2.3 0 4.3.7 5.9 2.1V9.7h3.8v29.6h-3.8v-2.6zm18.6 3.1c-1.6 0-3-.2-4.3-.7c-1.2-.5-2.4-1.3-3.3-2.2c-.9-1-1.6-2.1-2.1-3.5c-.5-1.4-.8-3-.8-4.8c0-1.8.3-3.4.8-4.7c.5-1.4 1.2-2.6 2-3.6c.9-.9 2-1.6 3.2-2.2c1.2-.5 2.6-.7 4.1-.7c1.5 0 2.9.2 4.1.7c1.3.6 2.3 1.3 3.2 2.2c.9 1 1.5 2.2 2 3.6c.5 1.3.7 2.9.7 4.7c.03-.01 0 .9 0 .9H79.2c.1 1.3.3 2.4.7 3.3c.3.9.8 1.7 1.4 2.3c.5.6 1.2 1 2 1.3c.7.3 1.5.4 2.4.4c.6 0 1.3-.1 1.9-.2c.6-.2 1.2-.5 1.7-.8c.5-.3.9-.7 1.2-1.2c.3-.5.5-1.1.5-1.7h3.9c-.1 1.1-.5 2.1-1 3c-.5.8-1.2 1.6-2 2.1c-.8.6-1.8 1.1-2.8 1.4c-1.1.3-2.2.4-3.4.4zm5.6-13.3c-.3-2.1-1-3.6-2-4.7c-1.1-1-2.4-1.5-4-1.5c-.8 0-1.5.2-2.2.4c-.6.2-1.2.6-1.7 1.1c-.6.5-1 1.2-1.4 1.9c-.3.8-.6 1.7-.7 2.8h12zm12.2 12.8h-3.9V9.7h3.9v29.6zm16.7-18c-.6-.1-1.4-.2-2.3-.2c-1.9 0-3.6 1-5 3v15.2h-3.8V17.8h3.8v3.1c1.5-2.4 3.4-3.5 5.6-3.5h.8c.3 0 .6.1.9.1v3.8zm16.3 12.4v-4.8h-2.6c-5.5 0-8.3 1.5-8.3 4.6c0 1.1.4 1.9 1.2 2.5c.8.5 1.9.8 3.3.8c.6 0 1.2-.1 1.8-.2c.6-.1 1.2-.3 1.8-.6c.5-.3 1.1-.6 1.5-1c.5-.4 1-.8 1.3-1.3zm0 3.4c-1.9 1.8-4.4 2.7-7.5 2.7c-1.1 0-2-.1-2.9-.4c-.9-.3-1.7-.7-2.4-1.3c-.6-.5-1.1-1.2-1.5-1.9c-.4-.8-.6-1.6-.6-2.6c0-5 4.4-7.5 13-7.5h1.9c0-1 0-1.9-.1-2.6c-.1-.7-.3-1.3-.7-1.8c-.3-.5-.8-.8-1.5-1c-.7-.3-1.6-.4-2.8-.4c-3.4 0-5.2 1.2-5.3 3.7h-3.8c.3-4.4 3.4-6.6 9.3-6.6c1.3 0 2.5.1 3.6.3c1.1.3 2 .7 2.8 1.3c.7.5 1.3 1.4 1.7 2.4c.4 1 .6 2.4.6 4c-.03.03 0 13.9 0 13.9h-3.8v-2.2zm13.3-16.5c.9-1.1 1.9-1.9 3-2.4c1.1-.6 2.2-.8 3.4-.8c4.8 0 7.3 2.6 7.3 7.8c-.02.03 0 14.1 0 14.1h-3.9s.03-13.87 0-13.9c0-1.7-.3-3-.9-3.7c-.6-.8-1.6-1.2-3.1-1.2c-1.9 0-3.9 1.1-5.8 3.4v15.4H146V9.7h3.8v10.9zM198 39.3h-3.8s.02-13.87 0-13.9c0-.9 0-1.6-.2-2.3c-.1-.6-.3-1.1-.5-1.5c-.3-.4-.6-.7-1.1-.8c-.4-.2-.9-.3-1.5-.3c-1.9 0-3.7 1.1-5.5 3.4c.05.03 0 15.4 0 15.4h-3.8s.02-13.87 0-13.9c0-1.7-.2-3-.7-3.8c-.5-.7-1.4-1.1-2.7-1.1c-1.8 0-3.6 1.1-5.3 3.4c-.05.03 0 15.4 0 15.4H169V17.8h3.9s-.05 2.81 0 2.8c1.7-2.1 3.7-3.2 5.9-3.2c3.2 0 5.2 1.3 6.1 3.9c.7-.9 1.4-1.6 2-2.1c.6-.5 1.1-.9 1.6-1.2c.6-.3 1-.4 1.5-.5c.5-.1.9-.1 1.4-.1c4.4 0 6.6 2.6 6.6 7.8c.05.03 0 14.1 0 14.1zm19.1-5.6c.03-.03 0-4.8 0-4.8h-2.6c-5.5 0-8.3 1.5-8.3 4.6c0 1.1.4 1.9 1.2 2.5c.8.5 1.9.8 3.3.8c.6 0 1.3-.1 1.9-.2c.6-.1 1.2-.3 1.7-.6c.6-.3 1.1-.6 1.6-1c.5-.4.9-.8 1.2-1.3zm0 3.4c-1.9 1.8-4.4 2.7-7.5 2.7c-1 0-2-.1-2.9-.4c-.9-.3-1.7-.7-2.4-1.3c-.6-.5-1.1-1.2-1.5-1.9c-.4-.8-.5-1.6-.5-2.6c0-5 4.3-7.5 13-7.5h1.8c0-1 0-1.9-.1-2.6c-.1-.7-.3-1.3-.6-1.8c-.4-.5-.9-.8-1.6-1c-.6-.3-1.6-.4-2.8-.4c-3.4 0-5.2 1.2-5.3 3.7h-3.8c.3-4.4 3.4-6.6 9.3-6.6c1.3 0 2.6.1 3.6.3c1.1.3 2 .7 2.8 1.3c.7.5 1.3 1.4 1.7 2.4c.4 1 .6 2.4.6 4v13.9h-3.8s.03-2.19 0-2.2zm13.3-16.5c1-1.1 2-1.9 3-2.4c1.1-.6 2.2-.8 3.4-.8c4.9 0 7.3 2.6 7.3 7.8v14.1h-3.8s-.05-13.87 0-13.9c0-1.7-.4-3-1-3.7c-.6-.8-1.6-1.2-3.1-1.2c-1.9 0-3.9 1.1-5.8 3.4v15.4h-3.8V17.8h3.8v2.8zm52.7 18.7h-3.9V25.4h-15.4v13.9h-3.9V9.7h3.9v12.1h15.4V9.7h3.9v29.6zm19.8-5.6v-4.8h-2.6c-5.5 0-8.3 1.5-8.3 4.6c0 1.1.4 1.9 1.2 2.5c.8.5 1.9.8 3.3.8c.6 0 1.2-.1 1.8-.2c.6-.1 1.2-.3 1.8-.6c.5-.3 1-.6 1.5-1c.5-.4.9-.8 1.3-1.3zm0 3.4c-1.9 1.8-4.4 2.7-7.5 2.7c-1.1 0-2.1-.1-3-.4c-.9-.3-1.6-.7-2.3-1.3c-.7-.5-1.2-1.2-1.5-1.9c-.4-.8-.6-1.6-.6-2.6c0-5 4.4-7.5 13-7.5h1.9c0-1-.1-1.9-.1-2.6c-.1-.7-.3-1.3-.7-1.8c-.3-.5-.8-.8-1.5-1c-.7-.3-1.6-.4-2.8-.4c-3.5 0-5.2 1.2-5.3 3.7h-3.8c.3-4.4 3.4-6.6 9.2-6.6c1.4 0 2.6.1 3.7.3c1.1.3 2 .7 2.8 1.3c.7.5 1.3 1.4 1.7 2.4c.4 1 .6 2.4.6 4c-.04.03 0 13.9 0 13.9h-3.8s-.01-2.19 0-2.2zm13.3-16.5c.9-1.1 1.9-1.9 3-2.4c1.1-.6 2.2-.8 3.4-.8c4.8 0 7.3 2.6 7.3 7.8c-.04.03 0 14.1 0 14.1H326s.02-13.87 0-13.9c0-1.7-.3-3-.9-3.7c-.6-.8-1.7-1.2-3.1-1.2c-2 0-3.9 1.1-5.8 3.4c-.03.03 0 15.4 0 15.4h-3.9V17.8h3.9s-.03 2.81 0 2.8zm23 18.7h-3.8V17.8h3.8v21.5zm0-25.5h-3.8V9.7h3.8v4.1z" stroke="none" fill="#343434"/></g></svg>