<?xml version="1.0" standalone="no"?><!DOCTYPE svg PUBLIC "-//W3C//DTD SVG 1.1//EN" "http://www.w3.org/Graphics/SVG/1.1/DTD/svg11.dtd"><svg xmlns="http://www.w3.org/2000/svg" version="1.1" width="343px" height="68.7px" viewBox="0 -1 343 68.7" style="top:-1px"><desc>Riyadh, Saudi Arabia</desc><defs/><g id="Polygon122712"><path d="m24.9 34.9h-3.8s-2.47-7.03-2.5-7c-.2-.6-.5-1.2-.9-1.7c-.4-.5-.8-1-1.3-1.4c-.5-.3-1-.6-1.6-.8c-.6-.3-1.2-.4-1.9-.4c0 .04-6.5 0-6.5 0v11.3H3V8.6h11.6c1.4 0 2.7.1 3.8.4c1.2.2 2.2.6 3 1.2c.8.6 1.5 1.3 1.9 2.3c.5.9.7 2.1.7 3.4c0 1-.2 1.9-.5 2.6c-.2.8-.6 1.5-1.2 2.1c-.5.5-1.1 1-1.8 1.4c-.8.5-1.6.8-2.4 1c1.8.5 3.2 2.1 4.2 4.7c-.04.03 2.6 7.2 2.6 7.2zM6.4 20.5h7.8c1.1 0 2-.1 2.8-.2c.7-.2 1.4-.4 1.9-.8c.5-.3.9-.8 1.1-1.4c.2-.6.4-1.3.4-2.2c0-2.9-1.9-4.4-5.6-4.4c-.05-.02-8.4 0-8.4 0v9zm26.1 14.4h-3.4V15.8h3.4v19.1zm0-22.7h-3.4V8.6h3.4v3.6zm4.4 27.1c.6.1 1.1.2 1.6.2c1.7 0 3.1-1.5 4.1-4.6c.01-.01-7.2-19.1-7.2-19.1h3.7l5 14.9l5.1-14.9h3.6s-7.18 19.09-7.2 19.1c-.5 1.3-.9 2.4-1.4 3.4c-.4 1-.9 1.8-1.4 2.4c-.5.7-1 1.1-1.6 1.5c-.6.3-1.3.4-2.1.4h-1.2l-1-.3v-3s0-.04 0 0zm31-9.4v-4.2s-2.29-.05-2.3 0c-4.9 0-7.4 1.3-7.4 4c0 1 .4 1.7 1.1 2.2c.7.5 1.7.8 2.9.8c.6 0 1.1-.1 1.7-.2c.5-.1 1-.3 1.5-.6c.5-.2 1-.5 1.4-.8c.4-.4.8-.8 1.1-1.2zm0 3c-1.7 1.6-3.9 2.4-6.7 2.4c-.9 0-1.8-.1-2.6-.4c-.8-.2-1.4-.6-2-1.1c-.6-.5-1.1-1-1.4-1.7c-.3-.7-.5-1.4-.5-2.3c0-4.4 3.9-6.7 11.6-6.7h1.6c0-.8 0-1.6-.1-2.2c-.1-.7-.3-1.2-.6-1.6c-.3-.5-.7-.8-1.3-1c-.6-.2-1.5-.3-2.5-.3c-3.1 0-4.6 1.1-4.7 3.3h-3.4c.3-3.9 3-5.9 8.2-5.9c1.2 0 2.3.1 3.3.3c.9.2 1.7.6 2.4 1.1c.7.5 1.2 1.3 1.5 2.2c.4.9.6 2.1.6 3.6c-.04-.03 0 12.3 0 12.3h-3.4v-2zm15.3-.2c1.9 0 3.6-1.1 5.2-3.3v-9c-1.5-1.6-3.2-2.4-5-2.4c-1.5 0-2.6.7-3.5 1.9c-.9 1.2-1.3 3.1-1.3 5.6c0 2.4.4 4.2 1.2 5.4c.8 1.2 2 1.8 3.4 1.8zm5.2-.1c-1.5 1.8-3.4 2.7-5.5 2.7c-1.2 0-2.3-.2-3.3-.6c-.9-.5-1.7-1.1-2.4-2c-.7-.8-1.2-1.9-1.5-3.1c-.4-1.2-.6-2.6-.6-4.1c0-1.5.2-2.9.6-4.2c.4-1.2 1-2.3 1.7-3.2c.7-.8 1.6-1.5 2.5-2c1-.4 2.1-.7 3.3-.7c2 0 3.8.7 5.2 1.9c-.01 0 0-8.7 0-8.7h3.3v26.3h-3.3v-2.3zm11.8-14.3c.8-1 1.7-1.7 2.7-2.2c.9-.4 1.9-.7 3-.7c4.3 0 6.4 2.4 6.4 7c.02 0 0 12.5 0 12.5h-3.4s.01-12.33 0-12.3c0-1.6-.3-2.7-.8-3.4c-.6-.7-1.5-1-2.8-1c-1.7 0-3.4 1-5.1 3c-.03.03 0 13.7 0 13.7h-3.4V8.6h3.4s-.03 9.69 0 9.7zm21.5 16.6c0 .8-.1 1.5-.2 2.1c-.2.6-.4 1.2-.7 1.6c-.3.5-.7.8-1.2 1.1c-.4.2-1 .4-1.6.4v-1.7c1.3 0 1.9-1.2 1.9-3.5H118v-3.7h3.7s.02 3.69 0 3.7zm24.8.4c-1.9 0-3.6-.2-5-.6c-1.4-.5-2.5-1.1-3.5-1.9c-.9-.8-1.6-1.7-2-2.8c-.5-1.1-.7-2.3-.8-3.6h3.4c0 1 .3 1.9.7 2.6c.4.7 1 1.3 1.7 1.8c.7.5 1.5.8 2.4 1c.9.3 1.9.4 2.9.4c.9 0 1.8-.1 2.6-.3c.8-.2 1.5-.5 2.1-.9c.5-.4 1-.8 1.3-1.4c.3-.5.5-1.2.5-1.9c0-.7-.1-1.3-.4-1.8c-.3-.5-.8-1-1.4-1.3c-.7-.4-1.5-.8-2.6-1.1c-1-.3-2.3-.6-3.8-.9c-1.6-.3-2.9-.7-4-1.1c-1-.5-1.9-1-2.6-1.5c-.6-.6-1.1-1.3-1.4-2c-.3-.8-.5-1.6-.5-2.6c0-1 .3-2 .7-2.9c.4-.9 1.1-1.7 1.9-2.3c.8-.7 1.8-1.2 2.9-1.5c1.2-.4 2.5-.6 3.9-.6c1.5 0 2.8.2 4 .6c1.2.3 2.3.8 3.2 1.5c.8.7 1.5 1.5 2 2.5c.5 1 .8 2.1.8 3.3h-3.4c-.3-3.2-2.4-4.8-6.4-4.8c-2 0-3.6.4-4.6 1.1c-1.1.8-1.6 1.7-1.6 2.9c0 .6.1 1.1.3 1.4c.1.4.5.8.9 1.1c.5.3 1.1.6 1.9.8c.8.3 1.8.6 3 .8c1.2.3 2.3.6 3.2.8c.9.3 1.7.5 2.4.7c.6.3 1.2.6 1.8 1c.6.3 1.2.8 1.6 1.3c.5.6.9 1.2 1.2 1.9c.3.8.4 1.6.4 2.5c0 1.1-.2 2.2-.7 3.1c-.5 1-1.2 1.8-2 2.5c-.9.7-1.9 1.2-3.1 1.6c-1.2.4-2.5.6-3.9.6zm26.1-5.4c.05-.02 0-4.2 0-4.2c0 0-2.26-.05-2.3 0c-4.9 0-7.3 1.3-7.3 4c0 1 .3 1.7 1 2.2c.7.5 1.7.8 3 .8c.5 0 1.1-.1 1.6-.2c.5-.1 1.1-.3 1.5-.6c.5-.2 1-.5 1.4-.8c.5-.4.8-.8 1.1-1.2zm0 3c-1.7 1.6-3.9 2.4-6.6 2.4c-1 0-1.8-.1-2.6-.4c-.8-.2-1.5-.6-2.1-1.1c-.6-.5-1-1-1.4-1.7c-.3-.7-.4-1.4-.4-2.3c0-4.4 3.8-6.7 11.5-6.7h1.6c0-.8 0-1.6-.1-2.2c0-.7-.2-1.2-.5-1.6c-.3-.5-.8-.8-1.4-1c-.6-.2-1.4-.3-2.5-.3c-3 0-4.6 1.1-4.7 3.3H160c.3-3.9 3-5.9 8.3-5.9c1.2 0 2.2.1 3.2.3c1 .2 1.8.6 2.4 1.1c.7.5 1.2 1.3 1.6 2.2c.3.9.5 2.1.5 3.6c-.01-.03 0 12.3 0 12.3h-3.4s.05-1.97 0-2zm20.5-.4c-1.7 1.9-3.6 2.8-5.7 2.8c-4.3 0-6.4-2.3-6.4-7c-.03.01 0-12.5 0-12.5h3.4s-.04 12.37 0 12.4c0 1.5.2 2.6.8 3.3c.5.7 1.4 1 2.7 1c1.9 0 3.6-1 5.2-3c.02-.03 0-13.7 0-13.7h3.4v19.1h-3.4s.02-2.43 0-2.4zm15.3.2c1.9 0 3.6-1.1 5.2-3.3v-9c-1.5-1.6-3.2-2.4-5-2.4c-1.5 0-2.6.7-3.5 1.9c-.9 1.2-1.3 3.1-1.3 5.6c0 2.4.4 4.2 1.2 5.4c.8 1.2 2 1.8 3.4 1.8zm5.2-.1c-1.5 1.8-3.4 2.7-5.5 2.7c-1.2 0-2.3-.2-3.3-.6c-.9-.5-1.7-1.1-2.4-2c-.7-.8-1.2-1.9-1.5-3.1c-.4-1.2-.6-2.6-.6-4.1c0-1.5.2-2.9.6-4.2c.4-1.2 1-2.3 1.7-3.2c.7-.8 1.6-1.5 2.5-2c1-.4 2.1-.7 3.3-.7c2 0 3.8.7 5.2 1.9c-.01 0 0-8.7 0-8.7h3.3v26.3h-3.3v-2.3zm11.8 2.3H222V15.8h3.4v19.1zm0-22.7H222V8.6h3.4v3.6zM253 24.1l-4.6-12.2l-4.5 12.2h9.1zm8 10.8h-3.9l-3.1-8h-11l-2.9 8h-3.7l10.1-26.3h3.8L261 34.9zm12.4-16c-.6-.1-1.3-.2-2.1-.2c-1.7 0-3.2.9-4.4 2.7c-.04.01 0 13.5 0 13.5h-3.4V15.8h3.4s-.04 2.71 0 2.7c1.3-2 3-3.1 4.9-3.1c.3 0 .5 0 .8.1c.2 0 .5 0 .8.1v3.3zm14.4 11v-4.2s-2.29-.05-2.3 0c-4.9 0-7.4 1.3-7.4 4c0 1 .4 1.7 1.1 2.2c.7.5 1.7.8 2.9.8c.6 0 1.1-.1 1.7-.2c.5-.1 1-.3 1.5-.6c.5-.2 1-.5 1.4-.8c.4-.4.8-.8 1.1-1.2zm0 3c-1.7 1.6-3.9 2.4-6.7 2.4c-.9 0-1.8-.1-2.6-.4c-.8-.2-1.4-.6-2-1.1c-.6-.5-1.1-1-1.4-1.7c-.3-.7-.5-1.4-.5-2.3c0-4.4 3.9-6.7 11.5-6.7h1.7c0-.8 0-1.6-.1-2.2c-.1-.7-.3-1.2-.6-1.6c-.3-.5-.7-.8-1.3-1c-.6-.2-1.5-.3-2.5-.3c-3.1 0-4.6 1.1-4.7 3.3h-3.4c.3-3.9 3-5.9 8.2-5.9c1.2 0 2.3.1 3.3.3c.9.2 1.7.6 2.4 1.1c.7.5 1.2 1.3 1.5 2.2c.4.9.6 2.1.6 3.6c-.04-.03 0 12.3 0 12.3h-3.4v-2zm11.8-14.8c1.5-1.8 3.3-2.7 5.5-2.7c1.2 0 2.3.3 3.3.7c.9.5 1.7 1.2 2.4 2c.7.9 1.2 1.9 1.5 3.1c.4 1.2.6 2.5.6 4c0 1.6-.2 3-.6 4.2c-.5 1.2-1 2.3-1.7 3.2c-.7.9-1.6 1.6-2.6 2c-1 .5-2.1.7-3.2.7c-2.1 0-3.8-.6-5.2-1.9v1.5h-3.4V8.6h3.4v9.5zm0 12.3c1.4 1.5 3.1 2.3 5 2.3c1.5 0 2.7-.7 3.5-1.9c.8-1.2 1.2-3.1 1.2-5.6c0-2.4-.4-4.2-1.1-5.4c-.8-1.2-2-1.8-3.5-1.8c-1.8 0-3.5 1.1-5.1 3.3v9.1zm20.5 4.5h-3.4V15.8h3.4v19.1zm0-22.7h-3.4V8.6h3.4v3.6zm17 17.7c.03-.02 0-4.2 0-4.2c0 0-2.28-.05-2.3 0c-4.9 0-7.3 1.3-7.3 4c0 1 .3 1.7 1 2.2c.7.5 1.7.8 2.9.8c.6 0 1.1-.1 1.7-.2c.5-.1 1-.3 1.5-.6c.5-.2 1-.5 1.4-.8c.4-.4.8-.8 1.1-1.2zm0 3c-1.7 1.6-3.9 2.4-6.6 2.4c-1 0-1.8-.1-2.6-.4c-.8-.2-1.5-.6-2.1-1.1c-.6-.5-1.1-1-1.4-1.7c-.3-.7-.5-1.4-.5-2.3c0-4.4 3.9-6.7 11.6-6.7h1.6c0-.8 0-1.6-.1-2.2c-.1-.7-.2-1.2-.5-1.6c-.3-.5-.8-.8-1.4-1c-.6-.2-1.5-.3-2.5-.3c-3.1 0-4.6 1.1-4.7 3.3h-3.4c.3-3.9 3-5.9 8.2-5.9c1.2 0 2.3.1 3.3.3c.9.2 1.8.6 2.4 1.1c.7.5 1.2 1.3 1.6 2.2c.3.9.5 2.1.5 3.6c-.03-.03 0 12.3 0 12.3h-3.4s.03-1.97 0-2z" stroke="none" fill="#aeafb0"/></g></svg>