<?xml version="1.0" standalone="no"?><!DOCTYPE svg PUBLIC "-//W3C//DTD SVG 1.1//EN" "http://www.w3.org/Graphics/SVG/1.1/DTD/svg11.dtd"><svg xmlns="http://www.w3.org/2000/svg" version="1.1" width="454px" height="89.5px" viewBox="0 -1 454 89.5" style="top:-1px"><desc>Abdelrahman Hani</desc><defs/><g id="Polygon118228"><path d="m20.5 29.9l-5.7-15.1l-5.5 15.1h11.2zm9.9 13.3h-4.8l-3.8-9.9H8.1l-3.6 9.9H0l12.5-32.5h4.6l13.3 32.5zm7.3-20.7c1.8-2.3 4.1-3.4 6.8-3.4c1.5 0 2.8.3 4 .9c1.2.6 2.3 1.4 3.1 2.4c.8 1.1 1.4 2.4 1.9 3.8c.4 1.5.6 3.2.6 5c0 2-.2 3.7-.7 5.2c-.5 1.6-1.2 2.9-2.1 4c-.9 1.1-2 1.9-3.2 2.5c-1.2.6-2.6.9-4 .9c-2.6 0-4.7-.8-6.4-2.4c-.02 0 0 1.8 0 1.8h-4.2V10.7h4.2s-.02 11.75 0 11.8zm0 15.1c1.8 1.9 3.8 2.9 6.2 2.9c1.8 0 3.3-.8 4.3-2.3c1-1.5 1.6-3.8 1.6-7c0-3-.5-5.2-1.5-6.6c-1-1.5-2.4-2.2-4.3-2.2c-2.3 0-4.4 1.3-6.3 4v11.2zm29.7 2.9c2.3 0 4.5-1.4 6.4-4V25.2c-1.8-1.9-3.9-2.8-6.2-2.8c-1.8 0-3.2.7-4.3 2.3c-1.1 1.5-1.6 3.8-1.6 6.9c0 3 .5 5.2 1.5 6.7c1 1.4 2.4 2.2 4.2 2.2zm6.4-.1c-1.9 2.3-4.1 3.4-6.7 3.4c-1.6 0-2.9-.3-4.1-.8c-1.2-.6-2.2-1.4-3.1-2.5c-.8-1-1.4-2.3-1.9-3.8c-.4-1.5-.6-3.2-.6-5.1c0-1.9.2-3.6.7-5.2c.5-1.5 1.2-2.8 2.1-3.9c.9-1.1 1.9-1.9 3.1-2.5c1.3-.6 2.6-.9 4-.9c2.6 0 4.8.8 6.5 2.3c.02.04 0-10.7 0-10.7h4.2v32.5h-4.2s.02-2.79 0-2.8zm20.5 3.4c-1.7 0-3.3-.3-4.7-.8c-1.4-.6-2.6-1.4-3.7-2.4c-1-1.1-1.8-2.4-2.3-3.9c-.6-1.5-.8-3.3-.8-5.2c0-2 .2-3.7.8-5.3c.5-1.5 1.3-2.8 2.2-3.8c1-1.1 2.2-1.9 3.5-2.4c1.4-.6 2.9-.9 4.5-.9c1.7 0 3.2.3 4.6.9c1.3.5 2.5 1.3 3.5 2.4c.9 1 1.7 2.3 2.2 3.8c.5 1.6.8 3.3.8 5.3c-.03-.05 0 1 0 1c0 0-17.82-.04-17.8 0c.1 1.4.3 2.6.7 3.6c.4 1 .9 1.8 1.6 2.5c.6.6 1.4 1.1 2.2 1.4c.8.3 1.7.5 2.7.5c.7 0 1.4-.1 2-.3c.7-.2 1.3-.4 1.9-.8c.5-.4 1-.8 1.3-1.3c.4-.6.6-1.2.6-1.9h4.3c-.2 1.2-.5 2.3-1.1 3.3c-.6.9-1.3 1.7-2.2 2.4c-.9.6-2 1.1-3.1 1.4c-1.2.3-2.4.5-3.7.5zm6.1-14.6c-.3-2.4-1-4.1-2.2-5.2c-1.1-1.1-2.6-1.6-4.4-1.6c-.8 0-1.6.1-2.3.4c-.8.2-1.4.6-2 1.2c-.6.6-1.1 1.3-1.4 2.1c-.4.9-.7 1.9-.9 3.1h13.2zm13.4 14h-4.2V10.7h4.2v32.5zm18.4-19.7c-.6-.2-1.5-.3-2.5-.3c-2.1 0-4 1.1-5.5 3.3c-.02.03 0 16.7 0 16.7H120V19.6h4.2s-.02 3.35 0 3.3c1.7-2.5 3.7-3.8 6.1-3.8c.3 0 .7 0 1 .1c.3 0 .6 0 .9.1v4.2zm18 13.5c-.05.04 0-5.2 0-5.2h-2.9c-6.1 0-9.1 1.7-9.1 5c0 1.2.4 2.2 1.3 2.8c.9.6 2.1.9 3.6.9c.7 0 1.4-.1 2-.2c.7-.2 1.3-.4 1.9-.7c.7-.3 1.2-.7 1.8-1.1c.5-.4 1-.9 1.4-1.5zm0 3.8c-2.2 2-4.9 3-8.3 3c-1.2 0-2.3-.2-3.2-.5c-1-.3-1.9-.8-2.6-1.4c-.7-.6-1.3-1.3-1.7-2.1c-.4-.9-.6-1.8-.6-2.8c0-5.6 4.8-8.3 14.3-8.3h2.1c0-1.1-.1-2-.2-2.8c-.1-.8-.3-1.5-.7-2c-.4-.5-.9-.9-1.7-1.2c-.7-.2-1.8-.3-3.1-.3c-3.7 0-5.7 1.3-5.8 4h-4.2c.4-4.9 3.8-7.3 10.2-7.3c1.5 0 2.8.1 4 .4c1.2.2 2.2.7 3.1 1.4c.8.6 1.4 1.5 1.9 2.6c.4 1.2.6 2.7.6 4.5v15.2h-4.1s-.05-2.38 0-2.4zm14.6-18.1c1-1.3 2.1-2.2 3.3-2.7c1.2-.6 2.4-.9 3.7-.9c5.4 0 8 2.9 8 8.7c.02-.04 0 15.4 0 15.4h-4.2V28c0-1.9-.3-3.3-1-4.2c-.7-.8-1.8-1.3-3.4-1.3c-2.2 0-4.3 1.3-6.4 3.8c-.04.02 0 16.9 0 16.9h-4.2V10.7h4.2s-.04 11.97 0 12zm53.1 20.5h-4.3s.04-15.23 0-15.2c0-1 0-1.8-.2-2.5c-.1-.7-.3-1.3-.6-1.7c-.3-.5-.6-.8-1.1-1c-.5-.2-1.1-.3-1.7-.3c-2.1 0-4.1 1.3-6 3.8v16.9h-4.2s-.02-15.23 0-15.2c0-2-.3-3.4-.9-4.2c-.5-.8-1.5-1.3-2.8-1.3c-2.1 0-4.1 1.3-6 3.8c.04.02 0 16.9 0 16.9h-4.2V19.6h4.2s.04 3.07 0 3.1c1.9-2.4 4.1-3.6 6.6-3.6c3.5 0 5.7 1.4 6.6 4.3c.9-1 1.6-1.7 2.3-2.3c.6-.6 1.2-1 1.8-1.3c.6-.3 1.1-.5 1.6-.5c.5-.1 1-.2 1.6-.2c4.8 0 7.3 2.9 7.3 8.7c-.05-.04 0 15.4 0 15.4zm20.9-6.2c.04.04 0-5.2 0-5.2H236c-6.1 0-9.1 1.7-9.1 5c0 1.2.4 2.2 1.3 2.8c.8.6 2 .9 3.6.9c.7 0 1.4-.1 2-.2c.7-.2 1.3-.4 1.9-.7c.6-.3 1.2-.7 1.8-1.1c.5-.4 1-.9 1.3-1.5zm0 3.8c-2.1 2-4.8 3-8.2 3c-1.2 0-2.3-.2-3.3-.5c-.9-.3-1.8-.8-2.5-1.4c-.7-.6-1.3-1.3-1.7-2.1c-.4-.9-.6-1.8-.6-2.8c0-5.6 4.8-8.3 14.3-8.3h2c0-1.1 0-2-.1-2.8c-.1-.8-.3-1.5-.7-2c-.4-.5-.9-.9-1.7-1.2c-.7-.2-1.8-.3-3.1-.3c-3.8 0-5.7 1.3-5.8 4h-4.2c.3-4.9 3.7-7.3 10.2-7.3c1.5 0 2.8.1 4 .4c1.2.2 2.2.7 3.1 1.4c.8.6 1.4 1.5 1.8 2.6c.5 1.2.7 2.7.7 4.5v15.2h-4.2s.04-2.38 0-2.4zm14.7-18.1c1-1.3 2.1-2.2 3.3-2.7c1.1-.6 2.4-.9 3.7-.9c5.3 0 8 2.9 8 8.7v15.4h-4.2s-.02-15.23 0-15.2c0-1.9-.4-3.3-1-4.2c-.7-.8-1.9-1.3-3.4-1.3c-2.2 0-4.3 1.3-6.4 3.8c-.05.02 0 16.9 0 16.9h-4.3V19.6h4.3s-.05 3.07 0 3.1zm79.9 20.5h-4.3V27.9h-17v15.3h-4.2V10.7h4.2V24h17V10.7h4.3v32.5zm21.8-6.2c-.02.04 0-5.2 0-5.2h-2.9c-6.1 0-9.1 1.7-9.1 5c0 1.2.4 2.2 1.3 2.8c.9.6 2.1.9 3.6.9c.7 0 1.4-.1 2.1-.2c.6-.2 1.3-.4 1.9-.7c.6-.3 1.2-.7 1.7-1.1c.5-.4 1-.9 1.4-1.5zm0 3.8c-2.1 2-4.9 3-8.3 3c-1.2 0-2.2-.2-3.2-.5c-1-.3-1.9-.8-2.6-1.4c-.7-.6-1.3-1.3-1.7-2.1c-.4-.9-.6-1.8-.6-2.8c0-5.6 4.8-8.3 14.3-8.3h2.1c0-1.1-.1-2-.2-2.8c-.1-.8-.3-1.5-.7-2c-.3-.5-.9-.9-1.6-1.2c-.8-.2-1.8-.3-3.2-.3c-3.7 0-5.7 1.3-5.8 4h-4.2c.4-4.9 3.8-7.3 10.2-7.3c1.5 0 2.9.1 4.1.4c1.2.2 2.2.7 3 1.4c.8.6 1.5 1.5 1.9 2.6c.4 1.2.6 2.7.6 4.5c.03-.03 0 15.2 0 15.2h-4.1s-.02-2.38 0-2.4zm14.6-18.1c1-1.3 2.1-2.2 3.3-2.7c1.2-.6 2.4-.9 3.7-.9c5.4 0 8 2.9 8 8.7c.05-.04 0 15.4 0 15.4h-4.2s.02-15.23 0-15.2c0-1.9-.3-3.3-1-4.2c-.7-.8-1.8-1.3-3.4-1.3c-2.2 0-4.3 1.3-6.4 3.8v16.9h-4.2V19.6h4.2v3.1zm25.4 20.5H391V19.6h4.2v23.6zm0-28H391v-4.5h4.2v4.5z" stroke="none" fill="#000"/></g></svg>