<?xml version="1.0" standalone="no"?><!DOCTYPE svg PUBLIC "-//W3C//DTD SVG 1.1//EN" "http://www.w3.org/Graphics/SVG/1.1/DTD/svg11.dtd"><svg xmlns="http://www.w3.org/2000/svg" version="1.1" width="133px" height="25.5px" viewBox="0 -1 133 25.5" style="top:-1px"><desc>Alsharaf Cars Company</desc><defs/><g id="Polygon122904"><path d="m5.1 7.6l-1-2.7l-1 2.7h2zm3.2 3.8H6.5L5.6 9h-3l-.9 2.4H0l3.3-8.6h1.5l3.5 8.6zm2.3 0H9.1V3h1.5v8.4zm3.9.2c-1.8 0-2.7-.8-2.8-2.4h1.6c0 .7.4 1.1 1.2 1.1c.3 0 .5-.1.7-.2c.2-.2.3-.3.3-.5c0-.1 0-.2-.1-.2c0-.1-.1-.1-.2-.2c-.1 0-.2-.1-.4-.1c-.2-.1-.5-.2-.8-.2c-.4-.1-.7-.2-.9-.3c-.3-.1-.5-.2-.7-.4c-.2-.1-.3-.3-.4-.5c-.1-.2-.1-.4-.1-.7c0-.3 0-.6.1-.8c.2-.2.3-.4.5-.6c.2-.2.5-.3.8-.4c.3-.1.6-.2 1-.2c1.6 0 2.5.7 2.5 2.2h-1.5c0-.6-.3-.8-1-.8h-.3c-.1 0-.2 0-.3.1c-.1 0-.2.1-.2.1c-.1.1-.1.2-.1.3v.1l.2.2c.1 0 .3.1.4.1c.2.1.5.1.8.2c.4.1.7.2 1 .3c.3.1.5.2.7.4c.2.1.3.3.4.5c.1.2.1.5.1.8c0 .3 0 .6-.2.8c-.1.3-.2.5-.5.7c-.2.2-.5.3-.8.4c-.3.1-.6.2-1 .2zm5.5-6c.4-.4.9-.6 1.4-.6c1.5 0 2.2.8 2.2 2.4c.04.02 0 4 0 4h-1.5V7.5c0-.4-.1-.7-.2-.9c-.1-.1-.3-.2-.6-.2c-.4 0-.9.2-1.3.8v4.2h-1.5V3h1.5v2.6zm9 3s-.41.05-.4 0c-1.3 0-2 .4-2 1c0 .2.1.4.3.5c.2.1.4.2.7.2c.1 0 .3-.1.4-.1c.1 0 .3-.1.4-.1c.1-.1.2-.1.4-.2c.1-.1.2-.2.2-.3c.03-.01 0-1 0-1zm0 2.5c-.5.3-1.1.5-1.7.5c-.3 0-.6-.1-.9-.2c-.3-.1-.5-.2-.7-.4c-.2-.1-.3-.3-.5-.6c-.1-.2-.1-.5-.1-.7c0-1.6 1.2-2.3 3.7-2.3h.2v-.5c0-.1-.1-.2-.2-.3c0-.1-.1-.1-.3-.2h-.6c-.7 0-1.1.3-1.1.9h-1.6c.1-1.5 1-2.3 2.8-2.3c.4 0 .7.1 1.1.2c.3 0 .5.2.8.3c.2.2.4.5.5.8c.1.3.2.7.2 1.2c-.03-.03 0 3.9 0 3.9H29s.03-.3 0-.3zm6.8-4.4c-.2 0-.3-.1-.5-.1c-.1 0-.2-.1-.4-.1c-.2 0-.4.1-.5.2c-.2.1-.4.3-.5.5c-.05 0 0 4.2 0 4.2h-1.6V5.2h1.6s-.05.35 0 .4c.3-.4.7-.6 1.2-.6c.1 0 .2.1.3.1h.4v1.6zm4.4 1.9s-.4.05-.4 0c-1.3 0-2 .4-2 1c0 .2.1.4.3.5c.2.1.4.2.7.2c.1 0 .3-.1.4-.1c.2 0 .3-.1.4-.1c.1-.1.3-.1.4-.2c.1-.1.2-.2.2-.3c.05-.01 0-1 0-1zm0 2.5c-.5.3-1 .5-1.7.5c-.3 0-.6-.1-.9-.2c-.3-.1-.5-.2-.7-.4c-.2-.1-.3-.3-.4-.6c-.2-.2-.2-.5-.2-.7c0-1.6 1.2-2.3 3.7-2.3h.2v-.5c0-.1-.1-.2-.1-.3c-.1-.1-.2-.1-.4-.2h-.6c-.7 0-1.1.3-1.1.9h-1.6c.1-1.5 1-2.3 2.8-2.3c.4 0 .7.1 1.1.2c.3 0 .6.2.8.3c.2.2.4.5.5.8c.1.3.2.7.2 1.2c-.02-.03 0 3.9 0 3.9h-1.6s.05-.3 0-.3zm5-4.6v4.9h-1.5V6.5h-.9V5.2h.9v-.3c0-1.4.6-2.1 1.8-2.1c.2 0 .4.1.6.1c.1 0 .3 0 .5.1v1.4c-.2-.1-.4-.1-.6-.1h-.3c-.2 0-.3 0-.4.1c0 .1-.1.3-.1.5c.03.04 0 .3 0 .3h1.1v1.3h-1.1zm11.1-.7c0-.3-.1-.5-.2-.7c-.1-.2-.2-.4-.4-.5c-.2-.2-.4-.3-.6-.4c-.2-.1-.5-.1-.7-.1c-.4 0-.7.1-1 .2c-.3.1-.6.3-.8.6c-.2.2-.4.5-.5.9c-.1.4-.1.8-.1 1.3c0 .5 0 .9.1 1.3c.1.4.3.7.5.9c.2.3.5.5.8.6c.3.2.6.2.9.2c.3 0 .6 0 .8-.1l.6-.3c.2-.2.3-.4.4-.6c.1-.2.2-.5.2-.8h1.6c0 .6-.1 1-.3 1.4c-.2.4-.5.7-.8 1c-.3.3-.7.5-1.1.6c-.4.2-.8.3-1.3.3c-.7 0-1.2-.1-1.7-.4c-.5-.2-.9-.5-1.3-.8c-.3-.4-.6-.9-.8-1.5c-.2-.5-.3-1.1-.3-1.8c0-.7.1-1.3.3-1.8c.2-.6.5-1 .8-1.4c.4-.4.8-.7 1.3-.9c.5-.2 1.1-.3 1.7-.3c.4 0 .9 0 1.3.2c.4.1.8.3 1.1.6c.3.3.6.6.8 1c.2.4.3.8.3 1.3h-1.6zm6.8 2.8s-.41.05-.4 0c-1.3 0-2 .4-2 1c0 .2.1.4.3.5c.2.1.4.2.7.2c.1 0 .3-.1.4-.1c.1 0 .3-.1.4-.1c.1-.1.2-.1.4-.2c.1-.1.2-.2.2-.3c.04-.01 0-1 0-1zm0 2.5c-.5.3-1.1.5-1.7.5c-.3 0-.6-.1-.9-.2c-.3-.1-.5-.2-.7-.4c-.2-.1-.3-.3-.5-.6c-.1-.2-.1-.5-.1-.7c0-1.6 1.2-2.3 3.7-2.3h.2v-.5c0-.1-.1-.2-.2-.3c0-.1-.1-.1-.3-.2h-.6c-.7 0-1.1.3-1.1.9h-1.6c.1-1.5 1-2.3 2.8-2.3c.4 0 .7.1 1.1.2c.3 0 .5.2.8.3c.2.2.4.5.5.8c.1.3.2.7.2 1.2c-.03-.03 0 3.9 0 3.9h-1.6s.04-.3 0-.3zm6.8-4.4c-.2 0-.3-.1-.5-.1c-.1 0-.2-.1-.4-.1c-.2 0-.4.1-.5.2c-.2.1-.4.3-.5.5c-.04 0 0 4.2 0 4.2h-1.6V5.2h1.6s-.04.35 0 .4c.3-.4.7-.6 1.2-.6c.1 0 .2.1.3.1h.4v1.6zm3.1 4.9c-1.7 0-2.6-.8-2.7-2.4h1.5c0 .7.4 1.1 1.2 1.1c.3 0 .6-.1.8-.2c.1-.2.2-.3.2-.5v-.2l-.2-.2c-.1 0-.3-.1-.5-.1c-.2-.1-.4-.2-.7-.2c-.4-.1-.7-.2-1-.3c-.3-.1-.5-.2-.7-.4c-.1-.1-.3-.3-.4-.5c0-.2-.1-.4-.1-.7c0-.3.1-.6.2-.8c.1-.2.3-.4.5-.6c.2-.2.4-.3.7-.4c.3-.1.7-.2 1-.2c1.7 0 2.6.7 2.6 2.2h-1.5c-.1-.6-.4-.8-1-.8h-.4c-.1 0-.2 0-.3.1c-.1 0-.1.1-.2.1v.4c0 .1.1.1.2.2c.1 0 .2.1.4.1c.2.1.4.1.7.2c.4.1.7.2 1 .3c.3.1.5.2.7.4c.2.1.3.3.4.5c.1.2.2.5.2.8c0 .3-.1.6-.2.8c-.1.3-.3.5-.5.7c-.2.2-.5.3-.8.4c-.3.1-.7.2-1.1.2zm13.1-5.8c0-.3-.1-.5-.2-.7c-.1-.2-.2-.4-.4-.5c-.1-.2-.3-.3-.6-.4c-.2-.1-.4-.1-.7-.1c-.4 0-.7.1-1 .2c-.3.1-.6.3-.8.6c-.2.2-.3.5-.4.9c-.2.4-.2.8-.2 1.3c0 .5 0 .9.2 1.3c.1.4.2.7.4.9c.2.3.5.5.8.6c.3.2.6.2 1 .2c.2 0 .5 0 .7-.1c.3-.1.5-.2.6-.3c.2-.2.3-.4.4-.6c.1-.2.2-.5.2-.8h1.7c-.1.6-.2 1-.4 1.4c-.2.4-.4.7-.8 1c-.3.3-.6.5-1.1.6c-.4.2-.8.3-1.3.3c-.6 0-1.2-.1-1.7-.4c-.5-.2-.9-.5-1.3-.8c-.3-.4-.6-.9-.8-1.5c-.2-.5-.3-1.1-.3-1.8c0-.7.1-1.3.3-1.8c.2-.6.5-1 .8-1.4c.4-.4.8-.7 1.3-.9c.5-.2 1.1-.3 1.7-.3c.5 0 .9 0 1.3.2c.4.1.8.3 1.1.6c.3.3.6.6.8 1c.2.4.3.8.4 1.3h-1.7zm5.8-.8c.5 0 .9.1 1.2.3c.4.1.7.3 1 .6c.2.3.4.6.6 1c.1.4.2.9.2 1.4c0 .5-.1 1-.2 1.4c-.2.4-.4.7-.6 1c-.3.3-.6.5-1 .6c-.3.2-.7.3-1.2.3c-.4 0-.8-.1-1.2-.3c-.4-.1-.7-.3-.9-.6c-.3-.3-.5-.6-.6-1c-.2-.4-.2-.9-.2-1.4c0-.5 0-1 .2-1.4c.1-.4.3-.7.6-1c.2-.3.5-.5.9-.6c.4-.2.8-.3 1.2-.3zm0 5.3c.2 0 .4-.1.6-.2c.1 0 .3-.2.4-.3l.3-.6c.1-.3.1-.6.1-.9c0-.3 0-.6-.1-.8c-.1-.3-.2-.5-.3-.7c-.1-.1-.3-.2-.4-.3c-.2-.1-.4-.1-.6-.1c-.2 0-.4 0-.5.1c-.2.1-.4.2-.5.3c-.1.2-.2.4-.3.7c0 .2-.1.5-.1.8c0 .3.1.6.1.9l.3.6c.1.1.3.3.5.3c.1.1.3.2.5.2zm12.7 1.1h-1.5s-.03-3.93 0-3.9c0-.4-.1-.7-.2-.9c-.1-.1-.2-.2-.5-.2c-.3 0-.7.2-1.2.7c.04.05 0 4.3 0 4.3h-1.5V7.5c0-.4 0-.7-.1-.9c-.1-.1-.3-.2-.5-.2c-.4 0-.8.2-1.2.7c-.02.05 0 4.3 0 4.3h-1.6V5.2h1.6s-.02.35 0 .4c.2-.2.4-.4.6-.4c.3-.1.5-.2.7-.2c.4 0 .8.1 1.1.2c.2.2.5.4.6.7c.2-.2.4-.3.5-.5c.1-.1.3-.2.4-.2c.1-.1.3-.1.4-.1c.1 0 .3-.1.4-.1c1.3 0 2 .8 2 2.4c.03.02 0 4 0 4zm3.5-5.9c.2-.1.4-.3.7-.3c.2-.1.4-.2.7-.2c.4 0 .8.1 1.1.3c.3.1.6.3.8.6c.3.3.4.6.5 1c.2.4.2.9.2 1.4c0 .5 0 .9-.2 1.3c-.1.4-.3.8-.5 1.1c-.3.2-.6.5-.9.6c-.3.2-.7.3-1.1.3c-.2 0-.5-.1-.7-.1c-.2-.1-.4-.1-.6-.3c.02.04 0 2.4 0 2.4h-1.5V5.2h1.5s.02.3 0 .3zm0 4.2c.4.4.8.6 1.3.6c.3 0 .6-.2.8-.5c.2-.4.3-.9.3-1.5c0-.7-.1-1.2-.3-1.5c-.2-.3-.4-.4-.8-.4c-.4 0-.9.2-1.3.8v2.5zm9.1-1.1s-.49.05-.5 0c-1.3 0-1.9.4-1.9 1c0 .2 0 .4.2.5c.2.1.4.2.7.2c.1 0 .3-.1.4-.1c.2 0 .3-.1.4-.1c.2-.1.3-.1.4-.2l.3-.3c-.04-.01 0-1 0-1zm0 2.5c-.5.3-1.1.5-1.8.5c-.3 0-.6-.1-.9-.2c-.2-.1-.5-.2-.7-.4c-.2-.1-.3-.3-.4-.6c-.2-.2-.2-.5-.2-.7c0-1.6 1.2-2.3 3.7-2.3h.3c0-.2-.1-.3-.1-.5c0-.1-.1-.2-.1-.3c-.1-.1-.2-.1-.4-.2h-.6c-.7 0-1.1.3-1.1.9h-1.6c.1-1.5 1-2.3 2.8-2.3c.4 0 .8.1 1.1.2c.3 0 .6.2.8.3c.2.2.4.5.5.8c.1.3.2.7.2 1.2v3.9h-1.5s-.04-.3 0-.3zm4.8-5.5c.5-.4.9-.6 1.5-.6c1.4 0 2.2.8 2.2 2.4c-.03.02 0 4 0 4h-1.6s.02-3.93 0-3.9c0-.4 0-.7-.2-.9c-.1-.1-.3-.2-.6-.2c-.4 0-.8.2-1.3.8c.02-.05 0 4.2 0 4.2h-1.5V5.2h1.5s.02.36 0 .4zm6 6.7c.4 0 .7-.4 1-1.1c-.04-.02-2.3-6-2.3-6h1.7l1.3 3.9l1.3-3.9h1.7s-2.3 6.06-2.3 6.1c-.1.3-.3.7-.4 1c-.1.3-.3.5-.4.8c-.2.2-.4.3-.6.5c-.2.1-.5.2-.8.2c-.2 0-.3-.1-.5-.1c-.1 0-.3 0-.5-.1v-1.5c.2.1.4.1.5.2h.3z" stroke="none" fill="#fff"/></g></svg>